/* XPM */
static char *result[] = {
/* columns rows colors chars-per-pixel */
"64 64 195 2 ",
"   c #1F3221",
".  c #1F3E24",
"X  c #272627",
"o  c #222C22",
"O  c #2B2927",
"+  c #272628",
"@  c #292628",
"#  c #272B29",
"$  c #2A2C29",
"%  c #332D27",
"&  c #322E29",
"*  c #233325",
"=  c #223D24",
"-  c #263529",
";  c #2A342A",
":  c #263B2B",
">  c #2A3C2C",
",  c #373127",
"<  c #3F3525",
"1  c #373827",
"2  c #34342A",
"3  c #3A352A",
"4  c #333B2B",
"5  c #3A3C2B",
"6  c #3E3C30",
"7  c #483B25",
"8  c #41372B",
"9  c #433B2C",
"0  c #4A3E2D",
"q  c #443C30",
"w  c #1F4025",
"e  c #1F4B2B",
"r  c #1E5929",
"t  c #244326",
"y  c #26442C",
"u  c #2B442D",
"i  c #264C2C",
"p  c #294B2E",
"a  c #36442E",
"s  c #3D472E",
"d  c #26522F",
"f  c #28562F",
"g  c #27592F",
"h  c #28582F",
"j  c #264D30",
"k  c #2D4B31",
"l  c #304531",
"z  c #3F4032",
"x  c #324B31",
"c  c #384E37",
"v  c #275430",
"b  c #285630",
"n  c #275B33",
"m  c #285A32",
"M  c #265F3A",
"N  c #285F38",
"B  c #335333",
"V  c #3C5234",
"C  c #345C35",
"Z  c #3C5C36",
"A  c #38523A",
"S  c #3B5B39",
"D  c #25652E",
"F  c #276037",
"G  c #296136",
"H  c #2C6C35",
"J  c #27623B",
"K  c #28643C",
"L  c #2A693E",
"P  c #356236",
"I  c #386537",
"U  c #356836",
"Y  c #346539",
"T  c #3B653B",
"R  c #336C3A",
"E  c #3B6B3B",
"W  c #2F723D",
"Q  c #337436",
"!  c #387137",
"~  c #33753D",
"^  c #3C733C",
"/  c #347D3A",
"(  c #3C7B3D",
")  c #45422E",
"_  c #4D422E",
"`  c #52462E",
"'  c #584729",
"]  c #55492F",
"[  c #584A2F",
"{  c #5E582F",
"}  c #494430",
"|  c #494B32",
" . c #524632",
".. c #554A31",
"X. c #5B4C31",
"o. c #455535",
"O. c #4D5435",
"+. c #4C5B37",
"@. c #4A5938",
"#. c #525535",
"$. c #5D5234",
"%. c #5B543A",
"&. c #614F2B",
"*. c #604F31",
"=. c #635333",
"-. c #695635",
";. c #665936",
":. c #6C5A36",
">. c #675738",
",. c #665E3A",
"<. c #6B5A38",
"1. c #715D36",
"2. c #725E39",
"3. c #4A6D3C",
"4. c #55673F",
"5. c #59623E",
"6. c #59693D",
"7. c #47753D",
"8. c #40793F",
"9. c #6F6437",
"0. c #65663B",
"q. c #756037",
"w. c #75623B",
"e. c #7A653B",
"r. c #7B683A",
"t. c #286740",
"y. c #286840",
"u. c #3E7342",
"i. c #367C40",
"p. c #3A7C41",
"a. c #495E43",
"s. c #426D41",
"d. c #4C6A44",
"f. c #556640",
"g. c #596A45",
"h. c #5A6849",
"j. c #417542",
"k. c #4D7245",
"l. c #437D43",
"z. c #447E4A",
"x. c #4A7C4B",
"c. c #587646",
"v. c #59784D",
"b. c #5A7B52",
"n. c #666A45",
"m. c #716742",
"M. c #7C6A42",
"N. c #746C48",
"B. c #647549",
"V. c #6B734D",
"C. c #677350",
"Z. c #846D3F",
"A. c #88703F",
"S. c #826C40",
"D. c #857046",
"F. c #897244",
"G. c #8F7847",
"H. c #88794E",
"J. c #927546",
"K. c #907844",
"L. c #937C4A",
"P. c #3E823E",
"I. c #3B8A3D",
"U. c #3F943F",
"Y. c #408B3F",
"T. c #378240",
"R. c #3C8442",
"E. c #3D8A43",
"W. c #3F9142",
"Q. c #428442",
"!. c #438C44",
"~. c #4A8B47",
"^. c #458749",
"/. c #4B854B",
"(. c #4D8B4C",
"). c #56864E",
"_. c #548B4D",
"`. c #449545",
"'. c #489647",
"]. c #469846",
"[. c #499A47",
"{. c #469448",
"}. c #4A954A",
"|. c #469948",
" X c #499949",
".X c #548551",
"XX c #5A8551",
"oX c #538B52",
"OX c #539453",
"+X c #529D52",
"@X c #5B9E5B",
"#X c #55A155",
"$X c #5BA35B",
"%X c #9A814E",
"&X c #9D8452",
/* pixels */
" X X X|. X X X X X X`.U.U.Y.].].`.Y.!.( P d i i p x p t i t p t t p p p t p p d v C U ! / I.].].].U.].].W.].].|.[.|.'. X X X[. X",
" X'. X'. X X X X X X].`.`.P.P.P.( ( ! P C d i p f b b f b b f f h h b b b b b d v C C C U ! ( P.P.P.I.U.].`.|.[.[.[. X X'.{.'. X",
" X X X X X X X[.+X X'.Q.^ I P P Z C x p i f f m n N G K J n N K G J J G N J n n b v b j p p C S Z I E ( !.'.+X X X X X X'. X X X",
" X X X X X X X[.[.{.^ C B x p u x p p j f m J J t.L G J M N n n n n n n J K L L M N m b j u u p k p x C I j.}.+X X X X X X X'.|.",
"+X+X#X+X#X#X+XOX~.^ B u > u u y u j b m N K L t.J M N m n n m m m m b m m J L L t.t.K n m j j y u y u > l S x.OX X+X+X+X X+X+X+X",
"$X$X$X$X$X$X$XOXs.x > > p j b b b m M K K K L L M M m b n m m m m m b v b m N J K L t.L L M n n v v k > > > T (.#X$X$X$X$X$X$X$X",
"$X$X$X$X$X$XOXx.c > > j v m N J J L K L M J J n b m N N n n J N N N M m n b b m N K K L L K K K n N m b u ; l T (.@X$X#X$X+X$X$X",
" X X X X+X}.j.S > ; u v N J L L t.t.K J N m b b b b m M K K L K J L K M M m m m m m M N J L K L t.L G m j y ; l T Q. X+X X X+X$X",
"Y.].].`.R.U p - ; y d n J K y.y.L G G m m m b b m m K K K K K K K K t.L K K n b b b n n G G K t.y.K K J m j : - : C ! Y.Y.Y.#X$X",
"Y.].Y.P.U p * * : j m G L L y.L K M g n f m m m N L K t.K J n J n J K K K L K M b b g f h n G K y.y.K K N m i - * : B ! I.Y.+X$X",
"[.[.^.T x ; - y j m J L y.y.t.K n m b m n n J J K L K K G n n n m m n M L L K N M m n b m h n M K y.t.K K N m y : - > B ! `.#X$X",
"[.].^ x ; : u v m J K L y.K J M m m b m m n L L L L N m N n n M N M n n n M K L K J J n h g g M J t.t.t.K L n b i y : > B I.+X$X",
"[.( C ; - i d m J K y.y.y.K M n n b m n N L t.t.K N m m m N K L L J M m m m J t.L L K J m h f g M L L t.y.t.K n b d y - u E (.$X",
"!.E a > y f h n J K y.y.t.K M b b b f n K t.y.L N b m n J L t.t.t.t.L n m b n L K y.K J m h f m m n K K t.t.K J n g d y > x x.@X",
"T B : y f f M J L K y.L K G m f b b m N K t.y.t.K n m n J t.y.t.y.t.L M m m M J y.y.y.J M f f h m m M K L t.t.K J n f i : : T oX",
"x u y i h m n K y.y.L K M m f f b b b n K t.y.t.K n b n n L t.t.y.L K n b b n L y.y.t.M n f g h f b m J y.K t.L K G n n i * b 3.",
"; > i f m m K L y.y.y.J n h m f m b f n M L y.y.K N b b n M J L K J n n b m J y.t.t.L N m h h m f f m J K t.t.K L J m m i . = t ",
"@ > p f h m K y.y.y.t.M g n f b m b f n n J L y.L N b f f f n n m m n b n n L y.y.L N m b h m b f f m n K t.t.y.L J m m d w . . ",
"$ > p v n G K y.y.y.t.N n b f f m m f m n M J K t.K n m g m f m m b b m N K t.K L N m b b m b b b b m n K K t.t.K J m g i . = t ",
"$ > p v m n K y.t.t.L n f f b m h h b b f b n J K L L J n m b b b m n N K K t.L J m m f b b b b m m m n J K t.t.K J n f d t t t ",
"$ : j v n n F L y.y.K n m b f m f m m f f f f M K t.t.y.K M N m n m M L L t.t.K m h f f f h m f h h m n M L t.t.L G g f i w w t ",
"$ ; u v n n K y.y.t.J n b b f b f f f f f f f h J t.y.L t.L K K K L t.L t.t.L N m f f f f f f h b m b n M K t.t.L G m h e . t t ",
"$ > i b n n J L y.t.L G m f f f f b b m m f f n n K K t.t.t.L K t.t.t.t.L K J n n f f b m f f m h b b n M t.t.t.K J g h i w t t ",
"$ > p f n n J L y.t.t.n m m f f f m g m b f f f m m J K L y.t.t.y.t.K K J J n m f f f m m b b m b f m n M t.t.t.K M g g d w t t ",
"$ > v b h m n L t.t.t.K n n m f f h m f f m m f f m m M J K K L K K K G m m b b f f m h m f m f b m n J L t.t.L J n m f i w t t ",
"$ > v b m f n J L t.y.t.K M m m h h m f f n f n b b m g n n G n n M n m m b b b f f m f f f f f b m n L L t.L J J n f f d w t t ",
"$ : i v m f m m M L t.y.K K M M n n m h f b m b h g f f h m m m n m m f f b b b h m b f g m m m M M K t.t.t.L J n m f f t . = t ",
"> > > j m h f b m N L y.L L K K J n n h b m f f f f f f f f h b m b f f h f b m b f m n n n J J K K K t.L M n m m h f f t     . ",
"k > : j b n f m b n J L L t.y.t.L J N m m m b b f f f f f f f h f f m f b h m f f h n n J K K t.L y.y.y.J m m f h f f f i o * t ",
"T x ; u f f h b b m n J L t.y.y.y.y.L L J M m b f f f f f b h g h f f b m f b f f m n J K t.y.y.L y.y.K G m f h h h f p = * u C ",
"Q.S ; > i b b b b f m n N t.t.y.y.y.y.y.L J N m h f f f f f f f f f f m f f m m M M K L K y.y.y.y.K K J m h h h h h f t : : T /.",
" X^ > > y v m m m f f b m K t.y.y.y.y.y.L t.L M m m b b m f f b h b f b h m m n K K y.y.y.y.y.y.y.L J m h h m h m h p : - x l.+X",
"[.Q.B ; : i f m h h h h m n J L y.y.y.y.y.y.t.K K n m m m m m m m b b b m n J K K y.y.y.y.y.y.y.K J m m m f b m b b p # > T Q. X",
" X~.E a ; y d m m h m h m m N K K y.y.y.y.y.y.t.L K N n n N n n n n m M n J K L t.t.y.y.y.y.L K J m m f b b m m d p : ; x ( {. X",
"[. X8.B ; - y j f m m h h m m n J L K y.y.y.L t.t.L K K L K K K L L K K L y.L y.t.t.t.L t.K K J m m f f b m b v p > - l I !. X X",
" X[.{.E x ; - y p f m h h h h h m M M K t.K K L t.t.t.t.t.t.y.y.y.y.t.t.t.y.y.L L K L J M M M m m f b m m b v i - - > C 8.{.[. X",
"[. X X!.E l $ # : p b m h h h m m m n n G N J J K L L t.y.y.y.y.y.y.y.t.t.K K K J G n n n n m m f b h m b v j : # ; x p.{.`.[.[.",
" X[.|.|.R.Y l $ $ : p f m h f b f b b m m m m m m M K K y.L y.y.y.y.y.L K J n M m m m m f f f f m m m g v y - $ $ k E !.|.].'.'.",
" X X X X{.E c 6 & ; > k b m m f h h h f h h h m m m M M K K K L t.t.K G n n m m m h h h h h h h h h h f i ; $ , ) S ( `.[.'.'.|.",
" X X|.{.Q.3.%.%.3 $ ; p f m h h h h m h h m h f f f m n M n J J J J K n m h m b f m g n h h f m m m h d y $ & q %.f.u.!.].'.|.|.",
" X|.{.p.3.0.M.w.9 $ $ > j b m m m m b m f m m g b b m m h m n n m n m b f h h m m n n g n m m f n n b y - $ &  .M.N.6.7.P.`.|.'.",
" X XE.3.#.r.S.w.q @ @ - : u j v d f v d d d f b n m f h h m n g m m m m n g h h f d v i i v d d d j y : # @ 2  .S.S.,.+.^ `.|.|.",
" X{.R.S | 1.r.>.6 @ + + # - y u p p u p y y i i v b b m n M g g f m m m n b b v i y y y y y u y y : - $ @ @ & _ <.w.;.o.I !.`.[.",
" X X!.E o.O...0 & @ + + # $ ; 4 4 > > 4 > : - - y p p d d j i e i i i i j j y > : ; > 4 4 4 > 4 4 2 $ @ @ @ $ 3  ...O.Z ^ !.'.[.",
" X'.`.R.T V l 1 ; # # + @ O % 3 2 2 < 9 ) 9 5 ; - > u u l y : y : u y a u u > ; 2 9 ) 0 5 3 2 2 2 & X X $ # ; ; 4 l S ^ Y.`.'.[.",
" X X X|.R.Y j u : : - # @ O , 8 , 3 8 ` X.=.[ _ 2 2 5 5 5 1 4 2 5 5 1 z s 1 1 9 ..$.=.[ _ < 3 3 3 , X X # : y y u v R R.'.[.[.'.",
" X X X X`.R N j v j y ; , 9 }  .0 9 0 ` *.-.1.-. .0 0 _ .... .) 0 ` ` ] _ 9 _ X.:.2.-.[ _ 9 9 0  ._ 5 & ; y d b C Y p.`. X'. X|.",
" X X X X{.i.G b b b u 4 5 ..*.=.*. .0 ` [ -.1.1.>.X._ [ =.>.;.X.[ =.=.[ ` ` X.:.2.:.=.] ` _ X.=.=.X.} , > p b m G ~ !.'. X X X[.",
"{.|.'.].W.T.H r r v i u 9 ] -.q.2.1.X...` X.-.1.2.=.[ [ *.-.=.$.=.-.=.[ ..$.<.2.:.X.] `  .;.2.e.1.=. .2 > d g g D / `.{.|. X'.{.",
"`.`.`.`.].I.P.H M v t 4 8 ` =.:.e.e.1.X.` ] *.:.1.-.] 0 _ [ ....[ [ [ _ _ X.<.1.=.] _ ] =.w.r.e.-.X.0 5 : i n H Q I.'.|.[. X X X",
"`.`.`.].|.`.{.^.K j u z 0 ` ] $.2.Z.2.-.` 0 [ *.-.[ 0 8 0 _ _ _ _ ` _ 9 9  .=.-.X.` 0 [ :.e.e.:.X.` _ 0 a i N p.!.'. X X X X X X",
" X|.]. X{.{. X~.T B | %.>.=.] ` *.2.2.-.` 8 0 ` ] _ 0 _ ` X.X.=.*.$.[ _ 9 0 ..X.` 8 9 X.:.1.-.[ ` ..=.>...| s.z.{. X{. X[. X[. X",
" X X'. X X|.[.~.s.4.m.G.D.q.=._ } X.=.*._ 3 3 8 8 8 0 ] =.=.:.:.:.:.-.[ 0 7 8 8 3 2 3 ..=.=.] _  .>.r.F.D.n.g./.}. X X'. X}.[.[.",
"|. X|. X X'.'.(.g.N.%X&X%XZ.=._ < 9 0 0 9 2 ; & & < _ =.:.2.2.:.2.2.2.-.X.8 3 & ; 2 4 0 _ _ 8 8 ] 2.F.%X&XH.V.v.~. X X X X X X X",
"'.'. X'. X X|.~.5.w.A.A.A.1.' 8 O 2 4 5 a y y : $ 2  .*.-.=.=.=.=.=.=.=.[ 0 2 $ > u > a 5 3 $ & 7 &.r.F.J.S.n.k.~. X[. X X'.'. X",
" X X X|.|.'.'.~.f.,.9.r.9.{ _ 1 ; - > u p p i i : 1 0 ..[ X.X.X.[ =.[ [  .9 4 : i d j p u ; ; 2 5 ' -.r.M.m.g.k.~. X X'. X X X[.",
" X X X'. X{. X(.b.v.B.B.B.c.d.a.B j j v b b g d j > 3 0 ] X.>.<.:.>..._ 8 2 > j d b b d d p j A a.h.V.V.C.C.b..X}. X X X{.|.[. X",
"'.[.{. X[. X X XoX.X)..X_._./.z.p.H G G n n m m v u > 9 ] -.M.F.D.w.=.) 2 > y v n m M G H H E j.x.b.XXXXXXXXXXOX}.{. X X X X X'.",
" X X[. X X{. X X}.}.}. X X X}.}.`.R.W W L K G m m j : 5 [ e.K.%X%XF.<._ > y v M G K H W / I.I.{. X}.}.}.}.}.}.}. X X X{.'.|. X|.",
"'.|.|. X X[.[. X X X X X X{.'.'. X`.I.I.!.T.( R H M j 5 ..2.F.L.L.Z.>.) u d F L W i.T.E.W.`.{.'. X X X X}.}. X X X X X X X X X'.",
" X'. X[.|.'. X{.'.|.'. X X X X X X XW.].{.`.E.R.p.W N l } =.e.S.r.w.X.s k K ~ R.E.E.`.|.].{. X X X'. X'. X X X X X{. X'. X[.{. X",
" X|.{. X X X X[. X X X'. X'. X X X X].]. X X{.{.{.E.i.C x } %.<.,...) B Y T.`.'.|.[. X X'.{.}.'. X X[.[.[.[.[.{.[. X[.|.'. X[. X",
"|. X X[.{.[. X{. X'. X X X X'. X X X X[. X X X X X}.Q.p.T S @.#.O.@.S ^ Q.}.'. X+X[.+X X X'. X|.'.|. X X X X X'. X X X X'.|. X X",
"'. X'. X X[. X[.|. X{.'. X X X X+X X X[.+X#X+X X X X}.{.^.u.T S S T u.^. X X X X X+X X X X X'. X X X X'.'.|. X|. X'.'. X X|. X'."
};
