/* XPM */
static char *result[] = {
/* columns rows colors chars-per-pixel */
"64 64 164 2 ",
"   c #162A16",
".  c #1D251B",
"X  c #1A2D1A",
"o  c #22271D",
"O  c #232B1D",
"+  c #2B2F1F",
"@  c #252E26",
"#  c #292C25",
"$  c #272F28",
"%  c #2B2E28",
"&  c #342C21",
"*  c #3C2A25",
"=  c #312F2A",
"-  c #3A2F28",
";  c #263127",
":  c #283027",
">  c #273128",
",  c #2A3129",
"<  c #273828",
"1  c #2A3B2A",
"2  c #34322B",
"3  c #3B322C",
"4  c #3D392D",
"5  c #422D28",
"6  c #4D2D2A",
"7  c #552D2C",
"8  c #582D2D",
"9  c #413024",
"0  c #42322E",
"q  c #4D322C",
"w  c #413C2F",
"e  c #50312C",
"r  c #5E332F",
"t  c #4E3532",
"y  c #453C30",
"u  c #4D3A32",
"i  c #543733",
"p  c #5C3534",
"a  c #533933",
"s  c #683637",
"d  c #653B37",
"f  c #663C38",
"g  c #6A3C39",
"h  c #2B432B",
"j  c #2F552F",
"k  c #2F5230",
"l  c #325332",
"z  c #346B35",
"x  c #366D38",
"c  c #3B6D38",
"v  c #3A723A",
"b  c #3B783B",
"n  c #4F402B",
"m  c #4A4032",
"M  c #514432",
"N  c #5B4336",
"B  c #5D4D35",
"V  c #5E4C39",
"C  c #565236",
"Z  c #5C5337",
"A  c #5E553A",
"S  c #614237",
"D  c #604D34",
"F  c #644439",
"G  c #6B443B",
"H  c #634B3A",
"J  c #6C4B3C",
"K  c #72463E",
"L  c #714D3E",
"P  c #65533C",
"I  c #6C543E",
"U  c #68593F",
"Y  c #71543F",
"T  c #71583F",
"R  c #4F6535",
"E  c #466E3B",
"W  c #53673B",
"Q  c #5A663F",
"!  c #47733C",
"~  c #4C743D",
"^  c #53753F",
"/  c #6F5740",
"(  c #6F5940",
")  c #745540",
"_  c #7A5442",
"`  c #745B41",
"'  c #7A5D43",
"]  c #5A6540",
"[  c #596A40",
"{  c #567641",
"}  c #5F7343",
"|  c #567842",
" . c #587A43",
".. c #7C6245",
"X. c #805C46",
"o. c #826546",
"O. c #846847",
"+. c #836649",
"@. c #8A654A",
"#. c #856949",
"$. c #8A6D4B",
"%. c #8E714D",
"&. c #93744E",
"*. c #98774F",
"=. c #9A784F",
"-. c #816E52",
";. c #837154",
":. c #8F7250",
">. c #947550",
",. c #987752",
"<. c #967851",
"1. c #9A7B53",
"2. c #9C7F58",
"3. c #A07F55",
"4. c #A17F58",
"5. c #418741",
"6. c #4E8743",
"7. c #448E43",
"8. c #4B8F46",
"9. c #528444",
"0. c #508945",
"q. c #459245",
"w. c #4A9146",
"e. c #499748",
"r. c #479A48",
"t. c #489848",
"y. c #9F8157",
"u. c #9C815A",
"i. c #A18156",
"p. c #A4855A",
"a. c #A8875B",
"s. c #A7885C",
"d. c #AA8A5E",
"f. c #998967",
"g. c #998B69",
"h. c #A18761",
"j. c #A38C65",
"k. c #AD8E61",
"l. c #B18F62",
"z. c #AF9063",
"x. c #AC956B",
"c. c #AE986F",
"v. c #B49465",
"b. c #B89767",
"n. c #B79867",
"m. c #B79768",
"M. c #B89768",
"N. c #B6996B",
"B. c #B99A69",
"V. c #AC9F78",
"C. c #B39F75",
"Z. c #B99F71",
"A. c #ADA37D",
"S. c #B7A174",
"D. c #BAA173",
"F. c #B0A57E",
"G. c #BAA67A",
"H. c #B7A97F",
"J. c #BAAA7F",
"K. c #B6AD85",
"L. c #BAAD83",
"P. c #BBB086",
"I. c #B7B189",
"U. c #BAB28A",
/* pixels */
"t.t.t.t.t.t.t.t.t.t.t.t.t.t.t.t.t.t.t.t.t.t.t.t.t.t.t.t.e.r.e.e.r.e.r.e.e.r.e.r.t.t.t.t.t.t.t.t.t.t.t.t.t.t.t.t.w.t.t.t.t.t.t.t.",
"t.t.t.t.t.t.t.t.t.t.t.t.t.t.t.t.t.t.t.t.t.t.t.t.t.t.t.t.e.r.e.r.r.e.e.r.r.e.r.e.t.t.t.t.t.t.t.t.t.t.t.t.t.t.t.t.t.t.t.t.t.t.t.t.",
"t.t.t.t.t.t.t.t.t.t.t.t.t.t.t.t.t.t.t.t.t.t.t.t.t.t.t.t.e.e.r.e.e.e.e.e.e.r.e.r.t.t.t.t.t.t.t.t.t.t.t.t.t.t.t.t.t.t.t.t.t.t.t.t.",
"t.t.t.t.t.t.t.t.t.t.t.t.t.t.t.t.t.t.t.t.t.t.t.t.t.t.t.t.r.e.e.r.e.r.r.e.r.e.r.e.t.t.t.t.t.t.t.t.t.t.t.t.t.t.t.t.t.t.t.t.t.t.t.t.",
"t.t.t.t.t.t.t.t.t.t.t.t.t.t.t.t.t.t.t.t.t.t.t.t.t.t.t.w.w.w.w.w.w.w.w.e.e.e.r.q.t.t.t.t.t.t.t.t.t.t.t.t.t.t.t.t.t.t.t.t.t.t.t.t.",
"t.t.t.t.t.t.t.t.t.t.t.t.t.t.t.t.t.t.t.t.t.t.t.t.t.t.t.W V H A Z C A D Z 6.r.t.t.t.t.t.t.t.t.t.t.t.t.t.t.t.t.t.t.t.t.t.t.t.t.t.t.",
"t.t.t.t.t.t.t.t.t.t.t.t.t.t.t.t.t.t.t.t.t.t.t.t.t.8.{ P J _ I P P T ` J A 6.t.t.t.t.t.t.t.t.t.t.t.t.t.t.t.t.t.t.t.t.t.t.t.t.t.t.",
"t.t.t.t.t.t.t.t.t.t.t.t.t.t.t.t.t.t.t.t.t.t.t.t.t. .J Y ' $...T T ' $...) P 6.t.t.t.t.t.t.t.t.t.t.t.t.t.t.t.t.t.t.t.t.t.t.t.t.t.",
"t.t.t.t.t.t.t.t.t.t.t.t.t.t.t.t.t.t.t.t.t.t.t.t.6./ _ $.,.&...I T o.&.*.%._ / A q.r.r.t.t.t.t.t.t.t.t.t.t.t.t.t.t.t.t.t.t.t.t.t.",
"t.t.t.t.t.t.t.t.t.t.t.t.t.t.t.t.t.t.t.t.t.t.8.0.H ) @.i.p.<.#...' O.,.p.4.@.) / 0.r.t.t.t.t.t.t.t.t.t.t.t.t.t.t.t.t.t.t.t.t.t.t.",
"t.t.t.t.t.t.t.t.t.t.t.t.t.t.t.t.t.t.t.t.t.r. .P / X.1.z.z.<.$.#.O.%.,.d.l.,.X.) P 6.r.t.t.t.t.t.t.t.t.t.t.t.t.t.t.t.t.t.t.t.t.t.",
"t.t.t.t.t.t.t.t.t.t.t.t.t.t.t.t.t.t.t.t.w.[ U ) X.>.p.v.v.y.:.$.%.&.i.v.l.a.,.+.) / } w.t.t.t.t.t.t.t.t.t.t.t.t.t.t.t.t.t.t.t.t.",
"t.t.w.t.t.t.t.t.t.t.t.t.t.t.t.t.e.r.e.w.0.H L X.>.h.v.M.z.p.&.#.O.%.p.v.m.v.a.>._ ) / 6.w.t.t.t.t.t.t.t.t.t.t.t.t.t.t.t.t.t.t.t.",
"t.t.t.t.t.t.t.t.t.t.t.t.t.t.t.t.e.e.r.W F F _ $.h.m.B.B.v.p.$.` ` %.p.v.m.M.b.h.-._ G F [ t.t.t.t.t.t.t.t.t.t.t.t.t.t.t.t.t.t.t.",
"t.t.t.t.t.t.t.t.t.t.t.t.t.t.t.t.e.8.{ H g G o.,.v.B.B.b.d.2.#.` ` #.1.k.v.B.B.v.2.X.G g H { w.t.t.t.t.t.t.t.t.t.t.t.t.t.t.t.t.t.",
"t.t.t.t.t.t.t.t.t.t.t.t.t.t.t.t.e.9.F s G _ $.i.B.B.B.v.d.>.#.+.o.#.>.d.v.B.B.B.h.%.) g d F 9.t.t.t.e.t.t.t.t.t.t.t.t.t.t.t.t.t.",
"t.t.t.t.t.t.t.t.t.t.t.t.t.t.t.t.] H g G ) +.1.k.b.B.B.v.d.1.&.%.%.%.1.d.v.B.B.n.k.1.+.) G g H ] w.t.t.t.t.t.t.t.t.t.t.t.t.t.t.t.",
"t.t.t.t.t.t.t.t.t.t.t.t.t.t.8.9./ G J _ +.1.k.v.B.B.B.v.v.p.%.#.O.&.p.v.B.B.N.N.v.d.1.#.` J G P 9.8.t.t.t.t.t.t.t.t.t.t.t.t.t.t.",
"t.t.t.t.t.t.t.t.t.t.t.t.t.t.| H ) _ ' +.1.d.v.v.v.v.B.B.v.a.$.` ` $.a.v.B.v.v.v.m.v.d.1.$.' _ J V | t.t.t.t.t.t.t.t.t.t.t.t.t.t.",
"t.t.t.t.t.t.t.t.t.t.t.t.w.[ / P ' $.&.1.d.v.v.d.a.v.B.B.d.y.#./ / +.y.d.v.B.z.a.k.v.v.d.1.&.$.o./ / [ w.t.t.t.t.t.t.t.t.t.t.t.t.",
"t.t.t.t.t.t.t.t.t.t.t.w.0.F K ' &.3.p.d.k.k.p.u.d.v.B.v.d.*.#.....#.&.d.n.B.z.i.i.p.k.v.d.i.i.&.../ F 0.w.r.t.t.t.t.t.t.t.t.t.t.",
"t.t.t.t.t.t.t.t.t.t.t.] F g _ >.p.v.v.n.k.2.:.<.v.B.B.v.s.1.&.%.&.&.<.d.v.B.B.v.2.:.2.k.B.v.l.p.%.) g F [ r.t.t.t.t.t.t.t.t.t.t.",
"t.t.t.t.t.t.t.t.t.8.{ H f G _ >.a.v.B.v.s.<.<.u.v.B.B.n.z.p.>.#.#.&.p.z.B.B.B.v.i.>.>.h.v.B.v.a.:._ G f / { 8.r.t.t.t.t.t.t.t.t.",
"t.t.t.t.t.t.t.t.t.9.F f G ) +.1.k.b.B.k.u.>.,.s.B.B.n.n.v.s.%.` ` %.a.v.B.B.B.v.d.,.&.i.l.B.M.d.,.@._ G p F  .r.t.t.t.t.t.t.t.t.",
"t.t.t.t.e.e.r.w.Q H d G T o.,.a.v.B.B.p.:.#.<.d.v.B.B.v.k.2.#./ ` #.y.z.v.B.B.B.d.>.$.%.p.B.B.v.a.,.o.T F f H Q t.t.t.t.t.t.t.t.",
"t.t.t.t.r.r.8.9.D g G T o.%.i.v.m.M.v.2.%.$.1.v.B.B.B.v.s.<.#.....#.<.d.v.B.B.B.z.1.$.%.1.v.M.M.v.i.%..._ G d H  .8.t.t.t.t.t.t.",
"t.t.t.t.e.r.^ F g G I +.&.=.a.v.M.m.k.<.&.1.d.n.B.B.B.v.d.1.&.$.%.&.1.s.v.B.B.B.v.d.2.&.2.d.v.B.v.a.1.%.o.I G G V { r.t.t.t.t.t.",
"t.t.t.t.w.R B d J J T $.=.i.l.b.B.k.2.:.&.p.v.B.B.B.B.B.z.p.&.#.O.>.p.z.v.B.v.b.n.v.p.&.%.1.z.B.b.d.i.=.$.` J G f V W q.t.t.t.t.",
"t.t.t.t.8.u r g J T ..%.y.d.v.B.M.a.%.#.>.p.n.B.B.B.B.b.v.p.%...' :.p.v.B.M.M.B.B.B.d.:.#.:.p.b.b.v.d.i.$...T J g p n 7.t.t.t.t.",
"t.t.t.t.7.9 8 G I ..$.&.i.l.B.B.v.1.+.+.>.s.v.B.B.v.B.v.l.i.#.` ) $.i.l.b.b.M.B.B.v.s.%...+.1.l.b.b.v.i.&.$...T G 8 9 7.t.t.t.t.",
"t.t.t.t.7.& 7 G ) ..#.&.i.l.B.b.a.>.' ..$.p.d.v.v.v.B.B.d.,.O.I / ..1.k.v.B.v.v.v.d.p.%...' &.a.b.b.v.i.&.$...T G e & 7.t.t.t.t.",
"t.t.t.t.7.+ 6 G ) ..#.&.i.v.B.b.a.&.' ..$.,.i.p.a.v.B.v.d.&.../ / ..&.d.v.m.v.d.p.i.2.%.....&.a.b.B.v.3.&.o...T G e # 7.t.t.t.t.",
"t.t.t.t.7.+ e G T ..o.%.1.z.B.B.d.1.%.O.%.*.=.i.d.k.d.d.u.#.` / I ` ..u.z.k.k.s.i.=.=.%.O.#.y.d.n.B.z.y.%.o...T G 6 + 7.r.e.e.r.",
"t.t.t.t.7.+ q G T ..%.&.i.v.B.B.n.p.y.<.&.=.y.p.d.a.i.2.%.......` ` ..:.1.u.p.s.i.i.=.<.<.u.s.n.n.n.z.p.&.$...` G 6 : 7.e.r.r.e.",
"t.t.t.t.7.+ 6 G Y O.&.=.i.l.v.B.N.n.d.s.p.p.a.d.a.3.%.#...` #.:.:.......#.%.2.p.d.a.p.p.s.z.v.B.B.B.l.i.*.*.$.` G 7 + 7.e.r.e.e.",
"t.t.t.t.7.+ 6 G _ #.%.&.1.d.v.B.B.n.n.n.v.l.k.p.1.&.O.....#.u.z.z.u.#...' o.%.2.p.d.v.v.v.v.n.n.B.v.d.=.&.&.O._ G e + 7.e.e.e.r.",
"t.t.t.t.7.+ 6 K ` ' o.#.%.i.d.b.n.B.B.B.B.v.a.=.&.O...` +.2.k.B.B.x.u.#.' ..#.%.1.a.v.B.B.B.B.B.v.z.y.%.O.O.' T G q + 7.r.r.e.r.",
"t.t.t.t.5.+ 6 G Y T T ' o.&.p.k.v.n.v.v.z.p.y.%.#...` o.2.z.z.k.k.z.z.<.......#.%.y.p.z.v.v.v.v.d.p.&.O...T T J G 6 + 7.e.e.e.e.",
"t.t.t.t.7.+ 6 g G J T o.%.&.=.p.z.l.d.p.y.1.%.#...` #.u.l.l.2.$.#.2.z.k.u.#.....O.&.u.y.p.d.l.z.p.<.>.%...T J G s 6 + 7.r.e.r.e.",
"t.t.t.t.7.+ * p s K T $.*.*.*.<.p.p.y.=.*.%.#...` O.2.v.m.p.+.P / +.p.v.z.2.#.` ..#.%.*.1.i.p.p.=.*.*.>.%.` J d r * O 7.e.e.r.e.",
"t.t.t.t.7.X # q d J ' $.=.=.*.>.=.y.=.=.&.O.' T #.2.v.v.d.>._ f s ) >.k.v.v.2.O.` ` #.%.<.1.1.y.<.>.*.*.$.' L S 0 # X q.r.e.e.r.",
"t.t.t.t.7.X o 4 F ` #.&.=.=.<.*.<.=.<.*.$...' O.2.z.v.d.1.o.H a t F ..>.d.v.z.2...` ' #.%.<.1.=.<.*.*.>.&.+.' J w O   7.e.r.e.e.",
"t.t.t.t.q.X o y I O.&.=.=.=.=.=.=.<.&.O.....#.1.v.v.k.y.#.I m , , y / #.1.l.m.m.2.+.' ` #.&.=.1.=.<.*.*.*.&.O.I w o X 7.r.e.r.e.",
"t.t.t.t.7.X o 4 P O.*.=.=.1.=.1.=.&.O.' ( ;.f.c.B.v.k.,.#.P m > , y / #.2.k.B.B.x.h.:.' ` #.&.,.y.=.=.1.<.*.#.I w . X 7.e.e.r.e.",
"r.e.e.e.7.X # m P O.%.*.=.<.y.=.&.O...` ..g.A.F.B.m.k.2.+.H y , , y / +.1.k.M.B.G.C.j.-.` ' #.&.=.y.=.=.&.%.o.I y # X 7.r.r.e.e.",
"e.e.r.r.7.O 9 F T ' o.%.=.=.=.>.$...I ;.g.K.K.H.B.b.k.1.o.F 0 > , 0 F ..1.k.v.B.S.K.F.g.-.` ' #.%.=.=.*.%...T T S 5 O 7.e.e.e.r.",
"r.e.e.e.q.+ q G U T ....$.*.*.%.T ..;.g.A.I.P.S.M.d.4.$./ i 2 % , 2 u / $.4.d.m.G.U.U.A.g.-.' ..O.&.<.%.o.` T Y G 6 + 7.e.r.e.r.",
"r.e.r.r.7.+ e L T ` U ( ..%.#...` ..g.A.U.U.P.S.v.p.>.` N 3 % > , > 2 N ` :.p.v.G.K.U.U.A.g...` ..$.%...` ` I T K e + 7.r.e.r.e.",
"e.e.e.r.7.+ e G T T / / ......T O.u.A.K.U.L.G.Z.v.i.$.L t , $ , > $ , t ) $.i.v.Z.G.U.U.K.V.u.+.T ' ..' T T T Y G 7 + 7.r.r.e.e.",
"e.r.e.e.7.+ e G J T ) I I I ` ..1.x.F.I.I.G.Z.n.d.1...S 0 % ; , $ , % 0 p ' 1.k.M.Z.G.P.I.K.x.1.O.T T I Y T T I G 6 + 7.r.e.e.r.",
"e.r.r.e.7.+ 6 d G L Y J J I #.<.d.Z.J.H.G.Z.n.d.i.$.I w = $ > % , > % 2 u P $.i.k.v.Z.G.K.G.B.z.2.#.I J J I Y K d 7 + 7.e.e.e.r.",
"e.e.e.r.7.+ 6 s g G J G Y #.u.z.B.D.G.S.N.v.d.i.%._ N 3 $ > , % , > $ $ 3 N ` $.1.d.z.N.Z.G.D.B.z.y.O.L G G G g g 7 + 7.r.r.e.e.",
"r.e.e.r.5.+ 6 s g g J L ' 1.k.m.b.B.B.z.p.y.,.&._ H u 2 @ , % $ % @ % @ 2 a H ' $.<.u.p.v.N.B.B.v.d.1.' L G g g g 7 O 7.e.e.r.e.",
"r.e.r.e.7.+ 7 d g K _ X.:.p.l.d.d.z.z.y.&.$.O.' G i 0 # : $ $ $ @ $ $ @ % 0 i G _ +.#.&.3.d.k.d.d.l.i.%.o._ K g g 6 + 7.r.e.r.e.",
"e.r.e.r.7.+ 5 d _ X.@.$.>.1.1.1.1.1.,.&.o.` T G i 0 = @ # , < h h < $ @ # % 0 i F T ..o.&.1.1.1.1.y.=.%.$.@.L g d 5 + 7.e.r.e.e.",
"r.e.r.e.7.O * a g _ O.o...o.o.o.o.o.o.T I I S i 0 # # @ > 1 l 7.5.k < ; @ @ % 3 i S I I ' o.+.o.....O.O.O.o.Y G a * X 7.r.e.e.r.",
"e.r.r.e.7.  . , M V B B B Z B B D D B B B a q - @ @ ; h h j 5.t.t.5.l h h ; O ; - q a B B B D Z B B B Z Z B B n 4 o   7.r.r.e.r.",
"e.e.e.e.7.z z x ! ~ ~ ~ ~ ~ ~ ~ ~ ~ ~ ~ ~ ~ E c z z v b b 5.t.t.t.t.5.b b x x z c E ~ ~ ~ ~ ~ ~ ~ ~ ~ ~ ~ ~ ~ ! c z z q.r.e.r.w.",
"r.e.e.r.r.r.e.r.e.r.r.r.e.r.r.r.r.t.t.t.r.r.r.r.t.t.r.r.r.t.t.t.t.t.t.t.r.t.t.t.e.r.e.r.t.r.t.r.r.r.t.t.t.t.r.e.e.e.e.r.r.e.r.e.",
"e.r.r.r.r.q.r.e.e.e.e.e.e.r.e.e.t.t.t.t.r.e.e.e.t.t.t.t.t.t.t.t.t.t.t.t.t.t.t.t.r.e.r.e.t.t.t.t.r.r.t.t.t.t.e.r.e.r.r.e.e.r.e.r.",
"e.e.r.e.r.e.e.r.e.r.r.e.r.r.e.e.t.t.t.t.t.t.t.t.t.t.t.t.t.t.t.t.t.t.t.t.t.t.t.t.e.r.e.r.e.r.r.e.e.e.e.r.r.e.r.e.e.r.r.e.r.r.r.r.",
"r.e.r.e.e.e.r.e.e.e.e.r.e.e.e.r.t.t.t.t.t.t.t.t.t.t.t.t.t.t.t.t.t.t.t.t.t.t.t.t.r.e.r.e.r.e.e.e.e.r.e.e.e.r.e.r.e.e.e.e.w.r.e.e.",
"e.e.e.e.e.r.r.e.r.e.e.e.r.e.r.e.t.t.t.t.t.t.t.t.t.t.t.t.t.t.t.t.t.t.t.t.t.t.t.t.e.r.e.r.e.e.e.r.e.r.r.e.r.e.e.r.r.e.e.r.r.e.r.e.",
"r.r.e.r.e.r.e.e.r.e.r.e.e.e.r.e.t.t.t.t.t.t.t.t.t.t.t.t.t.t.t.t.t.t.t.t.t.t.t.t.r.e.r.e.e.r.e.r.e.e.r.e.e.r.e.e.e.r.e.r.e.e.r.e."
};
