/* XPM */
static char *result[] = {
/* columns rows colors chars-per-pixel */
"64 64 253 2 ",
"   c #32321C",
".  c #1C312D",
"X  c #2A2527",
"o  c #382C29",
"O  c #2F332D",
"+  c #3B342C",
"@  c #283935",
"#  c #3B3634",
"$  c #5B351C",
"%  c #663B1A",
"&  c #733B19",
"*  c #562627",
"=  c #48382B",
"-  c #573726",
";  c #4D3235",
":  c #483C38",
">  c #712A28",
",  c #633A27",
"<  c #35591A",
"1  c #3E6719",
"2  c #1E483D",
"3  c #35483B",
"4  c #334D38",
"5  c #3E6B3F",
"6  c #714112",
"7  c #75461C",
"8  c #5F601A",
"9  c #487618",
"0  c #547B1C",
"q  c #56412A",
"w  c #465B2B",
"e  c #494335",
"r  c #4C4E34",
"t  c #584437",
"y  c #694629",
"u  c #744926",
"i  c #7A4C24",
"p  c #71542F",
"a  c #674937",
"s  c #764839",
"d  c #7A5538",
"f  c #41602B",
"g  c #4B7725",
"h  c #736F35",
"j  c #4C3142",
"k  c #53314A",
"l  c #553349",
"z  c #6D3B53",
"x  c #6B3963",
"c  c #2A5948",
"v  c #365844",
"b  c #36564B",
"n  c #1A6455",
"m  c #29684C",
"M  c #356A4A",
"N  c #2B6853",
"B  c #3A6556",
"V  c #2C7950",
"C  c #347A57",
"Z  c #297F64",
"A  c #575348",
"S  c #565753",
"D  c #694A44",
"F  c #734348",
"G  c #6C5345",
"H  c #735848",
"J  c #6F4557",
"K  c #794457",
"L  c #665E59",
"P  c #795C53",
"I  c #516B4E",
"U  c #547446",
"Y  c #696E4D",
"T  c #724C65",
"R  c #547063",
"E  c #73716E",
"W  c #871C1F",
"Q  c #9A251D",
"!  c #8C5016",
"~  c #995516",
"^  c #AB580A",
"/  c #AE5011",
"(  c #A65917",
")  c #B1700D",
"_  c #874E27",
"`  c #895727",
"'  c #935726",
"]  c #845B3B",
"[  c #945F36",
"{  c #A75E2A",
"}  c #8B6139",
"|  c #97633A",
" . c #AB6124",
".. c #BC6F2C",
"X. c #A86B3C",
"o. c #BA7439",
"O. c #CE5211",
"+. c #C26F07",
"@. c #D37903",
"#. c #CC7330",
"$. c #C77838",
"%. c #885B4A",
"&. c #A94F52",
"*. c #866448",
"=. c #956949",
"-. c #876958",
";. c #9B6B55",
":. c #A86E42",
">. c #A87249",
",. c #B67748",
"<. c #A47453",
"1. c #B77C54",
"2. c #86466B",
"3. c #8C4473",
"4. c #984779",
"5. c #A34C7E",
"6. c #8F7B6D",
"7. c #A5777F",
"8. c #C37E46",
"9. c #CD6356",
"0. c #E17D4D",
"q. c #4F8F11",
"w. c #57861A",
"e. c #559A15",
"r. c #729410",
"t. c #5CA516",
"y. c #67A81A",
"u. c #72B11D",
"i. c #4D8B2F",
"p. c #658D38",
"a. c #6EB520",
"s. c #6CB720",
"d. c #35865C",
"f. c #359859",
"g. c #2B8767",
"h. c #348660",
"j. c #348C63",
"k. c #369567",
"l. c #2D9C72",
"z. c #37A769",
"x. c #3BB66C",
"c. c #39B471",
"v. c #439644",
"b. c #4A9749",
"n. c #4B974A",
"m. c #4A8658",
"M. c #558257",
"N. c #509355",
"B. c #579B55",
"V. c #659456",
"C. c #73A358",
"Z. c #528C66",
"A. c #499765",
"S. c #659F62",
"D. c #76867B",
"F. c #69A662",
"G. c #6CA26C",
"H. c #71A26D",
"J. c #6FA472",
"K. c #72A471",
"L. c #3DC66E",
"P. c #3CC871",
"I. c #3CD673",
"U. c #35E378",
"Y. c #5DD467",
"T. c #43D671",
"R. c #8F940E",
"E. c #A18407",
"W. c #B88A06",
"Q. c #89AB17",
"!. c #91AA15",
"~. c #A29236",
"^. c #C69408",
"/. c #D5803C",
"(. c #D2B838",
"). c #F4D73A",
"_. c #F0E23F",
"`. c #989F44",
"'. c #BB8159",
"]. c #89AD54",
"[. c #95B654",
"{. c #A9B547",
"}. c #8A8A72",
"|. c #B59177",
" X c #8EAA72",
".X c #CC8349",
"XX c #D6884A",
"oX c #C98858",
"OX c #D48B55",
"+X c #D5935C",
"@X c #E48D53",
"#X c #E69557",
"$X c #CB9268",
"%X c #E39A65",
"&X c #EDA66D",
"*X c #EFA86F",
"=X c #99C35C",
"-X c #AEC452",
";X c #B6C650",
":X c #80E261",
">X c #C5C849",
",X c #D8CF45",
"<X c #D7D548",
"1X c #E1D343",
"2X c #C2E24D",
"3X c #9A4781",
"4X c #A44B83",
"5X c #AF508A",
"6X c #BC5195",
"7X c #BC5399",
"8X c #966084",
"9X c #C5569B",
"0X c #D35AA6",
"qX c #D55CAB",
"wX c #E663B7",
"eX c #F266BD",
"rX c #F569C5",
"tX c #768F85",
"yX c #8D8E85",
"uX c #958A8A",
"iX c #989495",
"pX c #AC988C",
"aX c #8EAD8C",
"sX c #93AD8E",
"dX c #97B497",
"fX c #ABAB91",
"gX c #A5A39C",
"hX c #969CA1",
"jX c #A9ABAD",
"kX c #B7ADAA",
"lX c #A7BDA6",
"zX c #BAB1AD",
"xX c #B4BEAF",
"cX c #ACB8B5",
"vX c #BBB8B4",
"bX c #D88F91",
"nX c #D5AB8D",
"mX c #E9B186",
"MX c #CCB5AB",
"NX c #C3B9B6",
"BX c #B1C4AD",
"VX c #B6C4B4",
"CX c #C8C6BB",
"ZX c #D0CDB1",
"AX c #D7C9B9",
"SX c #E9CDB4",
"DX c #BDC7C2",
"FX c #BDD0C5",
"GX c #C9C9C4",
"HX c #D1D3CE",
"JX c #DFE4D7",
"KX c #F2E5D5",
"LX c #ECEEEA",
/* pixels */
"b.b.b.b.b.b.b.b.b.b.b.b.b.b.b.b.b.b.b.b.b.b.b.b.b.b.b.b.b.b.b.b.b.b.b.b.b.b.b.b.b.b.b.b.b.b.b.b.b.b.b.b.b.b.b.b.b.b.b.b.b.b.b.b.",
"b.b.b.b.b.b.b.b.b.b.b.b.b.b.b.b.b.b.b.b.b.b.b.b.b.b.b.b.b.b.b.b.b.b.b.b.b.b.b.b.b.b.b.b.b.b.b.b.b.b.b.b.b.b.b.b.b.b.b.b.b.b.b.b.",
"b.b.b.b.b.b.b.b.b.b.b.b.b.b.b.b.b.b.b.b.b.b.b.b.b.b.b.b.b.b.n.n.b.b.b.b.b.b.b.b.b.b.b.b.b.b.b.b.b.b.b.b.b.b.b.b.b.b.b.b.b.b.b.b.",
"b.b.b.b.b.b.b.b.b.b.b.b.b.b.b.b.b.b.b.b.b.b.b.b.b.b.b.b.b.b.b.n.b.b.b.b.b.b.b.b.b.b.b.b.b.b.b.b.b.b.b.b.b.b.b.b.b.b.b.b.b.b.b.b.",
"b.b.b.b.b.b.b.b.b.b.b.b.b.b.b.b.b.b.b.b.b.b.b.b.b.b.b.b.b.b.n.n.b.b.n.n.b.n.n.b.b.b.b.b.b.b.b.b.b.b.b.b.b.b.b.b.b.b.b.b.b.b.b.b.",
"b.b.b.b.b.b.b.b.b.b.b.b.b.b.b.b.b.b.b.b.b.b.b.b.b.b.b.b.dXdXdXdXdXdXdXdXn.n.b.b.b.b.b.b.b.b.b.b.b.b.b.b.b.b.b.b.b.b.b.b.b.b.b.b.",
"b.b.b.b.b.b.b.b.b.b.b.b.b.b.b.b.b.b.b.b.b.b.b.b.b.b.f.BXvXjXjXjXjXjXjXvXxXf.b.b.b.b.b.b.b.b.b.b.b.b.b.b.b.b.b.b.b.b.b.b.b.b.b.b.",
"b.b.b.b.b.b.b.b.b.b.b.b.b.b.b.b.b.b.b.b.b.b.n.n.b.b.BXVXE R L R L R S E CXBXb.b.b.b.b.b.b.b.b.b.b.b.b.b.b.b.b.b.b.b.b.b.b.b.b.b.",
"b.b.b.b.b.b.b.b.b.b.b.b.b.b.b.b.b.b.b.b.b.b.n.n.n.BXVXD.r < w w w r w I yXDXlXN.n.b.b.b.b.b.b.b.b.b.b.b.b.b.b.b.b.b.b.b.b.b.b.b.",
"b.b.b.b.b.b.b.b.b.b.b.b.b.b.b.b.b.b.b.b.b.b.n.n.lXGXyXU 0 9 9 w.w.w.w.g U tXzXdXb.v.b.b.b.b.b.b.b.b.b.b.b.b.b.b.b.b.b.b.b.b.b.b.",
"b.b.b.b.b.b.b.b.b.b.b.b.b.b.b.b.b.b.b.n.b.n.i.VXDXD.U 1 q.e.e.y.a.a.s.e.i.< Y vXVXBXG.b.b.b.b.b.b.b.b.b.b.b.b.b.b.b.b.b.b.b.b.b.",
"b.b.b.b.b.b.b.b.b.b.b.b.b.b.b.b.b.b.b.n.b.v.VXVX}.U g q.q.t.y.Q.Q.a.s.s.y.w.g C.fXVXVXG.b.b.b.b.b.b.b.b.b.b.b.b.b.b.b.b.b.b.b.b.",
"b.b.b.b.b.b.b.b.b.b.b.b.b.b.b.b.n.n.n.n.N.lXGXyXU 0 w.e.q.t.y.Q.Q.s.s.s.u.u.r.w.p. XxXHXK.b.v.b.b.b.b.b.b.b.b.b.b.b.b.b.b.b.b.b.",
"b.b.b.b.b.b.b.b.b.b.b.b.b.b.b.b.n.n.n.n.lXGXhXL p R.R.r.e.e.t.u.s.s.s.y.!.!.R.r.9 g Y sXGXaXaXdXdXf.b.b.b.b.b.b.b.b.b.b.b.b.b.b.",
"b.b.b.b.b.b.b.b.b.b.b.b.b.b.v.v.v.v.f.VXDXtXS A 7 ) W.R.q.q.e.t.a.s.s.y.E.W.W.h 1 1 g Y }.iXiXjXDXdXi.b.b.b.b.b.b.b.b.b.b.b.b.b.",
"b.b.b.b.b.b.b.b.b.b.b.b.b.dXGXHXGXCXCXDXuXx @   6 ^ ) E.r.r.r.R.!.Q.r.R.E.+.( &   1 9 0 w = j L iXGXaXb.b.b.b.b.b.b.b.b.b.b.b.b.",
"b.b.b.b.b.b.b.b.b.b.b.b.J.GXuXpX|.6.yXuX8XT k o   % ! ) E.W.W.^.^.^.^.) ) ! %     < 9 9 < ; a -.-.E CXJ.b.b.b.b.b.b.b.b.b.b.b.b.",
"b.b.b.b.b.b.b.b.b.b.b.b.K.vX-.<.1.%.G T 5X5X3.k X = 7 ( +.@.@.@.@.@.@.+.~ y * # # 1 9 1 O : *.1.<.H vXG.b.b.b.b.b.b.b.b.b.b.b.b.",
"b.b.b.b.b.b.b.b.b.b.b.b.K.NX-.$X$X:.D z 6X0X7X3.z x z Q / ^ ^ ^ ^ ^ ^ ~ ! z x x J r 1 <   t ;.+XoX*.NXH.b.b.b.b.b.b.b.b.b.b.b.b.",
"b.b.b.b.b.b.b.b.b.b.b.b.K.NX-.oXoX=.: l 5XqXwX9X6X7X5.z - $ $ $ $ % $ - %.5.9X9X5X2.e . X t <.oX'.-.NXH.b.b.b.b.b.b.b.b.b.b.b.b.",
"b.b.b.b.b.b.b.b.n.n.n.b.K.vX-.1.oX>.d J 4.9XwXwXeXeX9X3.k k l l l l l z 4.9XeXrXqX4.j . + d 1.oX>.P NXH.b.b.b.b.b.b.b.b.b.b.b.b.",
"b.b.b.b.b.b.b.b.n.n.n.b.H.zXH | $.8.,.=.P 3.6XwXrXeXwX6X4X4.3X4.3X3X4.3X6XwXrXrXqX3.j + H 1.XX$.| H vXK.b.b.b.b.b.b.b.b.b.b.b.b.",
"b.b.b.b.b.b.b.b.n.n.n.n.H.zXG ' ..$.8.;.G z 4.7XqX0X9X9X9X6X6X6X7X6X7X7X9X9X0XqX9X3.D A =..XXX..' G zXG.b.b.b.b.b.b.b.b.b.b.b.b.",
"b.b.b.b.b.b.b.b.n.n.n.n.H.zXD !  .o.>.=.K T 2.4.4.4.4.4.5.3X5.4X4X4X4X5.4.4.4.4.4.2.2.2.;.,.$. .! a zXG.b.b.b.b.b.b.b.b.b.b.b.b.",
"b.b.b.b.b.b.b.b.b.b.b.b.G.vXH ' ( ' G K 4X4X2.l k j j j j l l l k k l k j : j j z 2.4X4XP s ' ( ~ G NXS.b.b.b.b.b.b.b.b.b.b.b.b.",
"b.b.b.b.b.b.b.b.b.b.b.b.F.VXpX=.! i a z 5.5.K , e S L L L t e = = = A L L R A e ; 2.4.4.F y 7 ! =.pXvXF.b.b.b.b.b.b.b.b.b.b.b.b.",
"b.b.b.b.b.b.b.b.b.b.b.b.b.G.CXpXd i _ s z z s i *.uXgXjXgX}.` 7 7 ] }.fXlXlX XY z > z K s 7 i ] pXNXG.b.b.b.b.b.b.b.b.b.b.b.b.b.",
"b.b.b.b.b.b.b.b.b.b.b.b.b.b.V.CXfX*._ _ , , 7 X.$XGXJXJXCXnX,. . .,.|.AXJXJXZX$X:._ , , _ _ ] fXCXV.b.b.b.b.b.b.b.b.b.b.b.b.b.b.",
"b.b.b.b.b.b.b.b.b.b.b.b.b.b.b.B.GXpX=._ 6 6 ! o.mXLXLXHXvX|.OX/./.OX$XzXHXLXKXmXo.~ 7 6 _ =.pXGXB.n.n.n.b.b.b.b.b.b.b.b.b.b.b.b.",
"b.b.b.b.b.b.b.b.b.b.b.b.b.b.b.b.S.CXuXy ! ~ ^ $.*XKXHXiXE ;.oX%X#X+X-.L iXHXJX*X$.^ ! 7 y }.CXF.n.n.n.n.b.b.b.b.b.b.b.b.b.b.b.b.",
"b.b.b.b.b.b.b.b.b.b.b.b.b.b.b.b.v.aXiX; 7 ! / #.&XSXlXE # d oX*X*XoXd A E kXSX&X#.( ! , = iXaXb.b.b.n.n.b.b.b.b.b.b.b.b.b.b.b.b.",
"b.b.b.b.b.b.b.b.b.b.b.b.b.b.b.b.K.GXE = - 7 ~ $.+XmXpXL + d oX*X*X$Xp # L |.mX@X#.~ , - = E VXJ.b.b.b.b.b.b.b.b.b.b.b.b.b.b.b.b.",
"b.b.b.b.b.b.b.b.b.b.b.b.b.b.v.B.FXtXI 3 @ e u { 8.@X,.%.t *.OX*X*X$X*.a ] '.@X#. .y = @ 2 v D.FXn.n.n.n.n.b.b.b.b.b.b.b.b.b.b.b.",
"b.b.b.b.b.b.b.b.b.b.b.b.b.b.b.B.FXR m V m 4 e u { #.$.,.>.1.%X*X*X%X'.>.,.$.$. .u e 4 m V V R VXn.n.n.n.b.b.b.b.b.b.b.b.b.b.b.b.",
"b.b.b.b.b.b.b.b.b.b.b.b.b.b.n.B.FXZ.f.x.f.C 3 = & { #.8.+X+X%X&X*X&X#XOX8.$. .u = b C k.z.f.M.BXBXf.n.n.b.b.b.b.b.b.b.b.b.b.b.b.",
"b.b.b.b.b.b.b.b.b.b.b.b.b.b.n.B.GXZ.f.z.k.j.N v - i ' X.1.oX#X#X#X#XOX1.X.' u q v N j.z.z.f.U }.fXBXb.n.b.b.b.b.b.b.b.b.b.b.b.b.",
"b.b.b.b.b.b.b.b.b.b.b.b.b.b.S.AXfXY f d.k.k.h.N v = - y d >.$./.XXo.X.] , , q v N g.j.k.d.5 w p 6.MXdXB.n.n.b.b.b.b.b.b.b.b.b.b.",
"b.b.b.b.b.b.b.b.b.b.b.b.b.J.CXpX*.y e 4 N j.k.j.C v 3 O e y '  . .' y + # @ 4 C j.k.h.N 4 q y i p P NXH.n.n.b.b.b.b.b.b.b.b.b.b.",
"b.b.b.b.b.b.b.b.b.b.b.b.S.vXiX*.i i y q 4 M d.k.k.j.V m c e % 6 & % 3 4 m V d.j.j.h.M 4 q % i i y t zXH.b.b.b.b.b.b.b.b.b.b.b.b.",
"b.b.b.b.b.b.b.b.b.b.b.b.S.kXD y _ ' i q # 3 N j.c.L.x.k.d.4 3 + = 4 v C z.x.x.z.d.m 3 4 q i ` ` u t vXH.b.b.b.b.b.b.b.b.b.b.b.b.",
"b.b.b.b.b.b.b.b.b.b.b.b.S.kXa u | ` u =   O c h.z.L.P.x.z.d.m 4 4 m f.z.P.I.P.c.j.b @ o = i ` [ i D kXH.b.b.b.b.b.b.b.b.b.b.b.b.",
"b.b.b.b.b.b.b.b.b.b.b.b.K.zXD [ X.| y o X O c h.l.c.x.L.L.x.x.f.f.f.x.L.T.T.T.c.j.b X X o a | X.| H NXH.b.b.b.b.b.b.b.b.b.b.b.b.",
"b.b.b.b.b.b.b.b.b.b.b.b.H.zXH :..X:.p o X @ c h.l.g.z.x.I.I.I.I.I.I.L.L.T.P.P.c.h.c @ X O a :.$.>.%.NXH.b.b.b.b.b.b.b.b.b.b.b.n.",
"b.b.b.b.b.b.b.b.b.b.b.b.H.zXH :..X.X:.a = @ c g.g.g.k.z.x.I.I.U.U.U.P.L.c.c.l.l.Z c @ = p >..XXX>.H NXH.b.b.b.b.b.b.b.b.b.b.b.b.",
"b.b.b.b.b.b.b.b.b.b.b.b.H.zXG :.XX#X,.[ : 3 c m.A.A.A.k.A.x.T.T.T.T.x.k.A.A.A.z.d.b 3 = *..X@XXX:.G vXH.b.b.b.b.b.b.b.b.b.b.b.b.",
"b.b.b.b.b.b.b.b.b.b.b.b.H.zXG :.XXXXo.] G I M.C.].].V.I C B.Y.:X:XY.n.C I V.].].C.U v A ] ,.@XXXX.a zXH.b.b.b.b.b.b.b.b.b.b.b.b.",
"b.b.b.b.b.b.b.b.b.b.n.n.H.zXG o..X,.d A I M.C.;X<X>X`.Y r Y {.2X<X{.p.4 U `.>X<X-XC.R M A ] ,.8.:.a kXG.b.b.b.b.b.b.b.b.b.b.b.b.",
"b.b.b.b.b.b.b.b.b.b.b.n.H.GX6.|.$X} : @ n m.].>X<X<X{.h 8 ~.(.)._.(.~.p p.{.1X1X>X].N.m 2 = } $X$X6.NXJ.b.b.b.b.b.b.b.b.b.b.b.b.",
"b.b.b.b.b.b.b.b.b.b.b.b.n.sXGXAXMX-.: . 2 B V.].=X=X[.`.{.(.).).).).(.~.`.[.=X=X].B.B @ . + P MXHXCXsXn.b.b.b.b.b.b.b.n.b.b.b.b.",
"b.b.b.b.b.b.b.b.b.b.b.b.b.b.b.n.VXkXL O O 3 M R A.A.C.[.>X1X).,X<X,X).>X[.V.A.A.m.I 3 o # L gXVXn.v.n.n.b.b.b.b.b.b.b.b.b.b.b.b.",
"b.b.b.b.b.b.b.b.b.b.b.b.b.b.b.b.B.cXgX, * * # c n m m.C.-X;X;X-X{.-X;X;X].I n n c : * * G gXBXB.b.b.n.n.b.b.b.b.b.b.b.b.b.b.b.b.",
"b.b.b.b.b.b.b.b.b.b.b.b.b.b.b.b.n.B.vXkX&.W * o . 2 4 M.F.F.F.G.F.F.F.S.M.m 2 . @ * > &.MXVXB.n.b.b.n.n.b.b.b.b.b.b.b.b.b.b.b.b.",
"b.b.b.b.b.b.b.b.b.b.b.b.b.b.b.b.b.b.n.AXbX&.W $ $ * ; b C C C C d.Z C B v e * $ , W &.bXCXn.n.n.b.b.b.b.b.b.b.b.b.b.b.b.b.b.b.b.",
"b.b.b.b.b.b.b.b.b.b.b.b.b.b.b.b.b.b.n.n.NXnX{ / / Q > A B B B B I B B B t > Q / ( :.MXCXn.b.n.n.b.b.b.b.b.b.b.b.b.b.b.b.b.b.b.b.",
"b.b.b.b.b.b.b.b.b.b.b.b.b.b.b.b.b.b.b.b.V.NXmX0.O.Q W > iXcXcXcXcXcXcXiXH W Q O.OXmXZXB.b.b.b.b.b.b.n.b.b.b.b.b.b.b.b.b.b.b.b.b.",
"b.b.b.b.b.b.b.b.b.b.b.b.b.b.b.b.b.b.b.b.n.B.ZXmX0.9.&.7.GXS.J.H.J.J.S.GX7X&.9.%XmXZXB.b.b.b.b.b.b.b.b.b.b.b.b.b.b.b.b.b.b.b.b.b.",
"b.b.b.b.b.b.b.b.b.b.b.b.b.b.b.b.b.b.b.b.b.b.V.AXSXAXMXGXB.b.b.b.b.b.b.B.GXMXAXSXAXn.n.n.n.n.n.b.b.b.b.b.b.b.b.b.b.b.b.b.b.b.b.b.",
"b.b.b.b.b.b.b.b.b.b.b.b.b.b.b.b.b.b.b.b.b.b.b.v.v.b.n.v.b.b.b.b.b.b.b.b.v.v.v.m.i.b.n.n.n.n.n.n.b.b.b.b.b.b.b.b.b.b.b.b.b.b.b.b.",
"b.b.b.b.b.b.b.b.b.b.b.b.b.b.b.b.b.b.b.b.b.b.b.b.b.b.b.b.b.b.b.b.b.b.b.b.b.n.n.n.b.b.b.b.n.n.n.n.b.b.b.b.b.b.b.b.b.b.b.b.b.b.b.b.",
"b.b.b.b.b.b.b.b.b.b.b.b.b.b.b.b.b.b.b.b.b.b.b.b.b.b.b.b.b.b.b.b.b.b.b.b.b.n.n.n.b.b.b.b.n.n.n.n.b.b.b.b.b.b.b.b.n.b.b.b.b.b.b.b.",
"b.b.b.b.b.b.b.b.b.b.b.b.b.b.b.b.b.b.b.b.b.b.b.b.b.b.b.b.b.b.b.b.b.b.b.b.b.b.b.b.b.b.b.b.b.b.b.b.b.n.b.b.b.b.b.b.b.b.b.b.b.b.b.b.",
"b.b.b.b.b.b.b.b.b.b.b.b.b.b.b.b.b.b.b.b.b.b.b.b.b.b.b.b.b.b.b.b.b.b.b.b.b.b.b.b.b.b.b.b.b.b.b.b.b.b.b.b.b.b.b.b.b.b.b.b.b.b.b.b.",
"b.b.b.b.b.b.n.b.b.b.b.b.b.b.b.b.b.b.b.b.b.b.b.b.b.b.b.b.b.b.b.b.b.b.b.b.b.b.b.n.b.b.b.b.b.b.b.b.b.b.b.b.b.b.b.b.n.b.b.b.b.b.b.b.",
"b.b.b.b.b.b.b.b.b.b.b.b.b.b.b.b.b.b.b.b.b.b.b.b.b.b.b.b.b.b.b.b.b.b.b.b.b.b.n.n.b.b.b.b.b.b.b.b.b.b.b.b.b.b.b.b.b.b.b.b.b.b.b.b."
};
