/* XPM */
static char *result[] = {
/* columns rows colors chars-per-pixel */
"64 64 248 2 ",
"   c #2F2C1E",
".  c #1B1C24",
"X  c #271821",
"o  c #1B282B",
"O  c #163939",
"+  c #282A2A",
"@  c #352827",
"#  c #283527",
"$  c #383526",
"%  c #242C33",
"&  c #342B32",
"*  c #273736",
"=  c #373737",
"-  c #731319",
";  c #492E1B",
":  c #5E221C",
">  c #56391C",
",  c #711A23",
"<  c #462826",
"1  c #5E292B",
"2  c #483828",
"3  c #573B28",
"4  c #453838",
"5  c #583B38",
"6  c #67302B",
"7  c #35501B",
"8  c #3D6219",
"9  c #3E7813",
"0  c #374624",
"q  c #27453B",
"w  c #384738",
"e  c #355C31",
"r  c #34603F",
"t  c #704816",
"y  c #77481A",
"u  c #4A6B1A",
"i  c #477816",
"p  c #77740D",
"a  c #594628",
"s  c #4D532F",
"d  c #474536",
"f  c #564436",
"g  c #445537",
"h  c #674629",
"j  c #774A25",
"k  c #674937",
"l  c #764C32",
"z  c #6B533A",
"x  c #76563A",
"c  c #476523",
"v  c #54732F",
"b  c #596C3C",
"n  c #726F33",
"m  c #313C41",
"M  c #4B2D45",
"N  c #573947",
"B  c #51354B",
"V  c #6D3D4E",
"C  c #693657",
"Z  c #783B64",
"A  c #1D5147",
"S  c #264A42",
"D  c #374745",
"F  c #295946",
"G  c #375B46",
"H  c #335553",
"J  c #28684B",
"K  c #376748",
"L  c #2C7154",
"P  c #357956",
"I  c #454C48",
"U  c #514C4E",
"Y  c #5B5745",
"T  c #495559",
"R  c #54555B",
"E  c #714543",
"W  c #73534B",
"Q  c #486559",
"!  c #536E54",
"~  c #6A6D48",
"^  c #6B785A",
"/  c #4C5D63",
"(  c #735065",
")  c #556F6C",
"_  c #5A6968",
"`  c #6C6F69",
"'  c #68746C",
"]  c #687675",
"[  c #767777",
"{  c #8F181E",
"}  c #91341A",
"|  c #A3251D",
" . c #A31521",
".. c #863132",
"X. c #834C1A",
"o. c #925212",
"O. c #9A5818",
"+. c #AB570C",
"@. c #A75D1A",
"#. c #82760D",
"$. c #B0690D",
"%. c #BA671D",
"&. c #87542A",
"*. c #975B26",
"=. c #885631",
"-. c #A65921",
";. c #906E2E",
":. c #9A6439",
">. c #AE6C34",
",. c #C9560B",
"<. c #C56608",
"1. c #CA6D0D",
"2. c #D77903",
"3. c #EB7303",
"4. c #E87802",
"5. c #CA752D",
"6. c #E07F2B",
"7. c #833D69",
"8. c #893F73",
"9. c #8A544A",
"0. c #996844",
"q. c #92684C",
"w. c #AB734D",
"e. c #B97948",
"r. c #89436A",
"t. c #974577",
"y. c #904F71",
"u. c #A14A7E",
"i. c #8D6C6A",
"p. c #857C78",
"a. c #C67D4A",
"s. c #3F963F",
"d. c #4F900F",
"f. c #54960E",
"g. c #4C8414",
"h. c #548A17",
"j. c #4A9814",
"k. c #589714",
"l. c #6E900E",
"z. c #649519",
"x. c #5BA314",
"c. c #68A919",
"v. c #74AE1F",
"b. c #6CB31A",
"n. c #77BA1D",
"m. c #56872C",
"M. c #638C24",
"N. c #709230",
"B. c #6FA521",
"V. c #78B721",
"C. c #7CC51D",
"Z. c #328C59",
"A. c #3CA15B",
"S. c #338A63",
"D. c #359665",
"F. c #38A769",
"G. c #3AB86C",
"H. c #3DAC74",
"J. c #439743",
"K. c #4C9142",
"L. c #479847",
"P. c #489848",
"I. c #528653",
"U. c #529B52",
"Y. c #599D59",
"T. c #719250",
"R. c #79A850",
"E. c #748674",
"W. c #78837B",
"Q. c #67A268",
"!. c #6FA572",
"~. c #73A673",
"^. c #79A879",
"/. c #3DCB6E",
"(. c #3DC771",
"). c #40C67C",
"_. c #918D0A",
"`. c #AD8606",
"'. c #938E36",
"]. c #9FA938",
"[. c #AFAA3A",
"{. c #CF8303",
"}. c #EA8101",
"|. c #E48738",
" X c #82C820",
".X c #B28A54",
"XX c #91AB4A",
"oX c #A8B448",
"OX c #9A9564",
"+X c #83807F",
"@X c #CB844B",
"#X c #D6894B",
"$X c #C98857",
"%X c #D78E54",
"&X c #EA9956",
"*X c #F09C55",
"=X c #F4A259",
"-X c #D0986C",
";X c #E29E67",
":X c #EDA769",
">X c #737D82",
",X c #994581",
"<X c #A84A86",
"1X c #B54E8E",
"2X c #B95090",
"3X c #9E7B84",
"4X c #C6549A",
"5X c #D2579F",
"6X c #D35AA6",
"7X c #D55AA7",
"8X c #E35EAE",
"9X c #E862B5",
"0X c #F365BC",
"qX c #FA68C2",
"wX c #768C88",
"eX c #7EAC81",
"rX c #8C8E8D",
"tX c #899595",
"yX c #939999",
"uX c #AC909F",
"iX c #8DA98B",
"pX c #89B18A",
"aX c #8EB393",
"sX c #97B898",
"dX c #AAAA91",
"fX c #99A6A6",
"gX c #94B0A8",
"hX c #A8ABAA",
"jX c #B4ABAC",
"kX c #A5BAA8",
"lX c #ABB6B6",
"zX c #B4BBB7",
"xX c #CDA584",
"cX c #ABC4AE",
"vX c #ACC4B2",
"bX c #B6C5BA",
"nX c #C7C9BD",
"mX c #BABDC0",
"MX c #AEC3C0",
"NX c #BBC5C3",
"BX c #BDCBC3",
"VX c #C3CAC4",
"CX c #C7C8C8",
"ZX c #C9D3CC",
"AX c #D6D3CE",
"SX c #CCD6D3",
"DX c #D7D6D6",
"FX c #ECECEC",
/* pixels */
"P.P.P.P.P.P.P.P.P.P.P.P.P.P.P.P.P.P.P.P.P.P.P.P.P.P.P.P.P.P.P.P.P.P.P.P.P.P.P.P.P.P.P.P.P.P.P.P.P.P.P.P.P.P.P.P.P.P.P.P.P.P.P.P.",
"P.P.P.P.P.P.P.P.P.P.P.P.P.P.P.P.P.P.P.P.P.P.P.P.P.P.L.P.P.P.P.P.P.P.P.P.P.P.P.P.P.P.P.P.P.P.P.P.P.P.P.P.P.P.P.P.P.P.P.P.P.P.P.P.",
"P.P.P.P.P.P.P.P.P.P.P.P.P.P.P.P.P.P.P.P.P.P.P.P.P.P.P.J.J.J.J.J.J.m.A.P.P.P.P.P.P.P.P.P.P.P.P.P.P.P.P.P.P.P.P.P.P.P.P.P.P.P.P.P.",
"P.P.P.P.P.P.P.P.P.P.P.P.P.P.P.P.P.P.P.P.P.P.P.P.P.P.P.ZXVXzXzXzXzXVXSX~.P.P.P.P.P.P.P.L.P.P.P.P.P.P.P.P.P.P.P.P.P.P.P.P.P.P.P.P.",
"P.P.P.P.P.P.P.P.P.P.P.P.P.P.P.P.L.P.P.L.P.L.Q.!.!.Q.bXzXW.R T R R [ hXSX!.!.!.~.K.L.P.L.P.P.P.P.P.P.P.P.P.P.P.P.P.P.P.P.P.P.P.P.",
"P.P.P.P.P.P.P.P.P.P.P.P.P.P.P.P.L.L.P.J.A.!.BXmXlXkXfX] I # #   # g ' yXkXhXmXSXaXA.m.A.P.P.P.P.P.P.P.P.P.P.P.P.P.P.P.P.P.P.P.P.",
"P.P.P.P.P.P.P.P.P.P.P.P.P.P.P.P.J.L.Z.vXkXbXfX) D S r e c 8 c c c v v b G m / tXCXvXBXQ.P.P.P.P.P.P.P.P.P.P.P.P.P.P.P.P.P.P.P.P.",
"P.P.P.P.P.P.P.P.P.P.P.P.P.P.P.P.A.m.cXmXtX] / m # 0 8 i g.g.h.M.z.B.B.v c = m R [ tXzXSXY.P.P.P.P.P.L.P.P.P.P.P.P.P.L.P.P.P.P.P.",
"P.P.P.P.P.P.P.P.P.P.P.P.P.P.P.P.U.vXMXwXH O % $ > p p l.l.k.x.b. X X XB.m.c d d e T wXzXSXQ.Z.L.P.P.P.P.P.P.P.P.P.P.P.P.P.P.P.P.",
"P.P.P.P.P.P.P.P.P.P.P.P.P.J.eXaXsXbX) S o . $ t +.$.$.`._.z.x.b.C. X XV.B.M.i u c g T ] mXNXaXsXL.P.P.P.P.P.P.P.P.P.P.P.P.P.P.P.",
"P.P.P.P.P.P.P.P.P.P.P.P.P.eXbXgXtX] D & o o 2 o.1.}.}.{._.k.j.x.b.V. XV.V.n.v.k.m.c w T ) wXfXmXcXL.P.P.P.P.P.P.P.P.P.P.P.P.P.P.",
"P.P.P.P.P.P.P.P.P.P.P.P.P.aXfXH m m N C M % 3 O.{.}.4.2.`.l.j.j.x.c.V. X XC.C.n.k.c 0 = m m H rXSXm.P.P.P.P.P.P.P.P.P.P.P.P.P.P.",
"P.P.P.P.P.P.P.P.P.P.P.P.P.aXfXH & N t.t.8.M 3 o.1.2.4.2.`.l.d.d.k.c.b.n.n. XC.n.z.c 0 % o o I p.BXQ.~.U.L.L.L.P.P.P.P.P.P.P.P.P.",
"P.P.P.P.P.P.P.P.P.P.P.P.P.aXfXT N 8.4X6X1X7.k j $.<.2.4.{._.l.l.l.z.c.c.b.n.C.n.z.c # o + $ c ^ sXvXVXkXU.P.P.P.P.P.P.P.P.P.P.P.",
"P.P.P.P.P.P.P.P.P.P.P.P.Y.bXyX( 8.2X8X0X8X1Xr.E y +.2.3.}.{.`.`.`._.B.k.x.x.b.c.k.c $ # 0 u i v v ~ W.ZXU.P.P.P.P.P.P.P.P.P.P.P.",
"P.P.P.P.P.P.P.P.P.P.P.U.VXrX( r.2X7XqXqX0X8X1Xr.f y +.<.2.2.2.2.{.`._.l.g.g.j.k.i c 0 0 8 h.c.c.z.v E.CXU.U.U.P.P.P.P.P.P.P.P.P.",
"P.P.P.P.P.P.P.P.P.P.P.U.NX_ N r.5X0XqXqXqX0X7X<XZ k X.o.+.+.,.3.4.}.`.#.u 8 9 g.i i c 8 i k.b.n.V.N.T.dXVXDXkXU.P.P.P.P.P.P.P.P.",
"P.P.P.P.P.P.P.P.P.P.P.U.bX/ N r.5X9X0X0X9X0X9X7X2Xy.V 3 ; > | ,.3.}.4.$.t 7 7 9 d.h.i g.d.f.c.n.V.V.N.N.T.yXSX^.P.P.P.P.P.P.P.P.",
"P.P.P.P.P.P.P.P.P.P.P.U.VX) M C u.1X4X4X6X8XqXqX8X2X8.C M B ..-.$.<.$.+.X.> s c i g.f.f.f.k.c.c.n.C.V.m.Y [ CX~.P.P.P.P.P.P.P.P.",
"P.P.P.P.P.P.P.P.P.P.P.U.ZXwXT B C Z Z t.,X6X9XqX0X7X1X8.( 8.r.=.X.X.X.&.*.;.x s 8 9 f.f.k.f.f.k.c.n.V.M.n ` mX!.P.P.P.P.P.P.P.P.",
"P.P.P.P.P.P.P.P.P.P.P.P.~.BXtXD & X @ N ( 1X7X9X8X8X5X5X7X5Xu.C <   $ l w.e.w.W 0 8 9 d.f.f.d.f.x.b.v.M.b [ CX!.P.P.P.P.P.P.P.P.",
"P.P.P.P.P.P.P.P.P.P.P.P.P.eXbXrXU @ ; 3 E t.u.u.8.u.<X4X7X8X4XZ & + d q.$X;Xw.W $ # 7 9 d.f.d.f.x.b.V.M.b ` CX~.P.P.P.P.P.P.P.P.",
"P.P.P.P.P.P.P.P.P.P.P.P.P.J.eXNX] f t j l V N B M M N r.1X5X<XC = 4 q..X:X;Xw.k o . # 8 i d.f.f.x.b.v.M.b ' CX~.P.P.P.P.P.P.P.P.",
"P.P.P.P.P.P.P.P.P.P.P.P.P.P.P.VX[ k &.*.&.6 4 m I = 4 V t.5X<XZ 5 W .X;X:X;Xw.k + . o 7 u i d.f.k.c.z.i ~ [ CX~.P.P.P.P.P.P.P.P.",
"P.P.P.P.P.P.P.P.P.P.P.P.P.Y.vXhX` W :.>.:.a I _ ] _ I N 7.4X<XZ N W $X:X:X#X:.h X . . + 0 u i d.f.h.b T.rXhXCX!.P.P.P.P.P.P.P.P.",
"P.P.P.P.P.P.P.P.P.P.P.P.Y.vXfX/ 4 =.@X.X:.f R wXlXgX_ U 7.1Xu.Z f W .X*X&X5.&.3 % % m = = 0 8 i i v E.cXcXbXpXL.P.P.P.P.P.P.P.P.",
"P.P.P.P.P.P.P.P.P.P.P.U.bXfX_ I W .X%X$X:.4 _ gXSXlX` N 7.2X<XZ B k >.#X|.5.X.2 U >XfXjXW.= 0 7 8 s E.BXU.m.L.L.P.P.P.P.P.P.P.P.",
"P.P.P.P.P.P.P.P.P.L.L.U.NX_ d Y 0.-X:X$X9.N ` gXSXzX] U Z 2X<XZ 4 a ;.5.6.5.X.2 R rXAXFXNX' Q ^ ^ ` tXSXU.L.P.P.P.P.P.P.P.P.P.P.",
"P.P.P.P.P.P.P.P.P.P.L.U.bX) m k w.$X;X%Xw.W 3XfXnXjXp.( Z u.t.Z 5 j @.%.1.>.&.3 B ` uXDXeXBXbXbXbXbXZX!.P.P.P.P.P.P.P.P.P.P.P.P.",
"P.P.P.P.P.P.P.P.P.P.L.U.BXQ S d x w.@X5.a.w.w.-XxX-X.Xq.9.Z Z E l O.@.+.O.&.9.9.E ( rXDXY.m.L.L.m.A.s.m.P.P.P.P.P.P.P.P.P.P.P.P.",
"P.P.P.P.P.P.P.P.P.P.P.U.BX) O O 0 h *.>.5.a.#Xa.%X#X%Xe.9.V 5 l @.%.%.o.t 3 Z t.t.y.uXDXA.P.P.P.P.L.A.L.P.P.P.L.P.P.P.P.P.P.P.P.",
"P.P.P.P.P.P.P.P.P.P.P.U.NX) A m Y l &.*.0.w.e.5.5.|.|.@X0.l y O.%.1.@.t @ @ C 7.y.u.uXDXY.P.P.P.P.L.L.L.P.P.P.P.P.P.P.P.P.P.P.P.",
"P.P.P.P.P.P.P.P.P.P.L.U.NXR D Y q.9.l 3 a k &.*.%.5.5.5.>.*.O.@.%.*.y 2   + M B C ( uXDXU.P.P.P.P.P.P.P.P.P.P.P.P.P.P.P.P.P.P.P.",
"P.P.P.P.P.P.P.P.L.P.P.U.VXR 5 0..Xe.9.= o + d j O.-.%.@.-.*.-.-.*.l 4 * % + + & % T rXSXU.P.P.P.P.P.P.P.P.P.P.P.P.P.P.P.P.P.P.P.",
"P.L.P.P.P.P.P.P.P.P.P.U.mXR h =.a.e.l = O O q s h j t t y j X.j j d D F J F * # I wXVXkXU.P.P.P.P.P.P.P.P.P.P.P.P.P.P.P.P.P.P.P.",
"P.P.P.P.P.P.P.P.P.P.P.U.BX3XW l >.:.h = A J J F = $ 2 ; 2 2 2 ; 2 D L S.S.P r w _ kXkXU.P.P.P.P.P.P.P.P.P.P.P.P.P.P.P.P.L.P.P.P.",
"P.P.P.P.P.P.P.P.P.P.P.P.~.VXiXn j y a K L D.D.Z.F q q O % + . . O S P H.H.F.L G ' zXsXP.P.P.P.P.P.P.P.P.P.P.P.P.P.P.P.P.P.P.P.P.",
"P.P.P.P.P.P.P.P.P.P.P.P.m.aXjXz 2 2 g Q F.G.G.D.P J J F q % . . o S P H.).G.Z.K ' zXsXK.P.P.P.P.P.P.P.P.P.P.P.P.P.P.P.P.P.P.P.P.",
"P.P.P.P.P.P.P.P.P.P.P.P.L.sXzX_ D = J Z.F./.(.G.D.D.S.L G = @ @ @ w P F.(./.Z.K _ fXBXQ.P.P.P.P.P.P.P.P.P.P.P.P.P.P.P.P.P.P.P.P.",
"P.P.P.P.P.P.P.P.P.P.P.P.L.Y.bXlX_ = O F S.F.(.(.(.F.P K g a h 3 2 d G D.G./.A.K w _ gXZXU.P.P.P.P.P.P.P.P.P.P.P.P.P.P.P.P.P.P.P.",
"P.P.P.P.P.P.P.P.P.P.P.P.P.P.L.nX[ 4 @ q K S.G.(./.F.J w 2 j j &.y 3 = K Z.G.A.K # w W.ZXU.P.P.P.P.P.P.P.P.P.P.P.P.P.P.P.P.P.P.P.",
"P.P.P.P.P.P.P.P.P.P.P.P.P.P.A.ZX+Xf > h g Q D.G.G.D.e # ; y *.*.X.3 @ q J Z.m.m.c ! ^.SXU.P.P.P.P.P.P.L.P.P.P.P.P.P.P.P.P.P.P.P.",
"P.P.P.P.P.P.P.P.P.P.P.P.P.P.m.BX+X~ ;.;.;.b K S.D.L q + ; j &.*.X.6 $ + O J m.'.'.'.OXFXU.P.P.P.P.P.P.P.P.P.P.P.P.P.P.P.P.P.P.P.",
"P.P.P.P.P.P.P.P.P.P.P.P.P.P.s.BX+X~ ].[.'.n I J L L G 2 h &.:.*.&.3 $ + # w '.[.[.oXdXSXU.P.P.P.P.P.P.P.P.P.P.P.P.P.P.P.P.P.P.P.",
"P.P.P.P.P.P.P.P.P.P.P.P.P.P.m.VXwX~ T.oXoX'.;.! K G Y x :.e.@X>.:.x 2 $ a ;.[.oXXXOXdXDXU.P.P.P.P.P.P.P.P.P.P.P.P.P.P.P.P.P.P.P.",
"P.P.P.P.P.P.P.P.P.P.P.P.P.J.A.nXrX! ! R.oXoX'.n g f q.e.@X#X#X#Xe.=.2 a n ].oXXX~.iXVXnXU.P.P.P.P.P.P.P.P.P.P.P.P.P.P.P.P.L.P.P.",
"P.P.P.P.P.P.P.P.P.P.P.P.P.P.A.ZXtX_ H I.XXoX].n a k w.#X*X&X*X&X@X=.f a '.oX XR.+XBXbXY.L.P.P.P.P.P.P.P.P.P.P.P.P.P.P.P.P.P.P.P.",
"P.P.P.L.P.P.P.P.P.P.P.P.P.P.P.~.ZXyXQ K U.Y.T.b = l >.&X=X*X*X&X@X:.d g ! R.T.I.~.zXsXP.P.P.P.P.P.P.P.P.P.P.P.P.P.P.P.P.P.P.P.P.",
"P.P.P.P.P.P.P.P.P.P.P.P.P.P.P.P.~.VXtX] I.S.P F = a :.@X&X&X*X&X@X0.5 w K P ) ) yXCXaXL.P.P.P.P.P.P.P.P.P.P.P.P.P.P.P.P.P.P.P.P.",
"P.P.P.P.P.P.P.P.P.P.P.P.P.P.P.P.P.^.ZXhXW.Q F * # 2 l 0.@X&X=X=X%X0.3 * O J ) yXDXsXJ.P.P.P.P.P.P.P.P.P.P.P.P.P.P.P.P.P.P.P.P.P.",
"P.P.P.P.P.P.P.P.P.P.P.P.P.P.P.P.P.J.pXDXgX_ D + + @ 2 k 0.%X*X*X@X0.5 . m _ fXSXsXJ.P.P.P.P.P.P.P.P.P.P.P.P.P.P.P.P.P.P.P.P.P.P.",
"P.P.P.P.P.P.L.P.P.P.P.P.P.P.P.P.P.P.J.^.CX[ 5 < < @ + & k :.e..Xw.x 4 . % >XCXaXP.P.P.P.P.P.P.P.P.P.P.P.P.P.P.P.P.P.P.P.P.P.P.P.",
"P.P.P.P.P.P.P.P.P.P.P.L.P.P.P.P.P.P.P.U.CX[ 1 - { , @ X & 5 k W k f & . = p.CX~.P.P.P.P.P.P.P.P.P.P.P.P.P.P.P.P.P.P.P.P.P.P.P.P.",
"P.P.P.P.P.P.P.P.P.P.P.P.P.P.P.P.P.P.P.U.CXp.N - { { : ; $ 2 a 3 2 < < X 4 i.AX~.P.P.P.P.P.P.P.P.P.P.P.P.P.P.P.P.P.P.P.P.P.P.P.P.",
"P.P.P.P.P.P.P.P.P.P.P.P.P.P.P.P.P.P.P.U.DXrXY 1 { | } X.X.y y 6 , - - : V p.AX~.P.P.P.P.P.P.P.P.P.P.P.P.P.L.P.P.P.P.P.P.P.P.P.P.",
"P.P.P.P.P.P.P.P.P.P.P.P.P.P.P.P.P.P.P.P.aXCXtXU 1 6 O.$.<.<.+.|  . . .- 6 3XAX~.P.P.P.P.P.P.P.P.P.P.P.P.P.P.P.P.P.P.P.P.P.P.P.L.",
"P.P.P.P.P.P.P.P.P.P.P.P.P.P.P.P.P.P.P.P.P.sXBXtX! h O.<.2.,.,.|  . . ...y.jXAXOXP.P.P.P.P.P.P.P.P.P.P.P.P.P.P.P.P.P.P.P.P.P.P.P.",
"P.P.P.P.P.P.P.P.P.P.P.P.P.P.P.P.P.P.P.P.J.A.sXZXiX~ 6 X.O.O.o.} , , ..i.jXAXpXP.P.P.P.P.P.L.P.P.P.P.P.P.P.P.P.P.P.P.P.P.P.P.P.P.",
"P.P.P.P.P.P.P.P.P.P.P.P.P.P.P.P.P.P.P.P.P.P.m.aXnXiXY 3 : ; 2 ; < 5 i.jXAXpXJ.P.P.P.P.P.P.P.P.P.P.P.P.P.P.P.P.P.P.P.P.P.P.P.P.P.",
"P.P.P.P.P.P.P.P.P.P.P.P.P.P.P.P.P.P.P.P.P.P.A.P.pXZXtX_ T T / T T [ hXSX~.P.P.P.P.P.P.P.P.P.P.P.L.P.P.P.P.P.P.P.P.P.P.P.P.P.P.P.",
"P.P.P.P.P.P.P.P.P.P.P.P.P.P.P.P.P.P.P.P.P.P.P.P.P.sXZXbXzXvXzXzXbXBXSX^.L.P.P.P.P.P.P.P.P.P.P.P.P.P.P.P.P.P.P.P.P.P.P.P.P.P.P.P.",
"P.P.P.P.P.P.P.P.P.L.P.P.P.P.P.P.P.P.P.P.P.P.P.P.P.L.A.J.J.J.P.J.J.J.J.L.P.P.P.P.P.P.P.P.P.P.P.P.P.P.P.P.P.P.P.P.P.P.P.P.P.P.P.P.",
"P.P.P.P.P.P.P.P.P.P.P.P.P.P.P.P.P.P.P.P.P.P.P.P.P.P.m.L.P.P.P.P.P.P.P.P.P.P.P.P.P.P.P.P.P.P.P.P.P.P.P.P.P.P.P.P.P.P.P.P.P.P.P.P.",
"P.P.L.P.P.P.P.P.P.P.P.P.P.P.P.P.P.P.P.P.P.P.P.P.L.L.L.L.P.P.P.P.P.P.P.P.P.P.P.P.P.P.P.P.P.P.P.P.P.P.P.P.P.P.P.P.P.P.P.P.P.L.P.P."
};
