/* XPM */
static char *result[] = {
/* columns rows colors chars-per-pixel */
"64 64 247 2 ",
"   c #392B1B",
".  c #161C27",
"X  c #2E1E20",
"o  c #18292A",
"O  c #173231",
"+  c #1D3736",
"@  c #26292A",
"#  c #342A29",
"$  c #293425",
"%  c #37352A",
"&  c #2C2933",
"*  c #3C2C36",
"=  c #273736",
"-  c #373837",
";  c #50351E",
":  c #6B381C",
">  c #5C1D23",
",  c #6E1C22",
"<  c #462927",
"1  c #4E2D2B",
"2  c #47372A",
"3  c #553A26",
"4  c #483A36",
"5  c #573B38",
"6  c #673733",
"7  c #29461E",
"8  c #38561E",
"9  c #3B671A",
"0  c #1A4A3C",
"q  c #374B22",
"w  c #30532B",
"e  c #29463C",
"r  c #364437",
"t  c #3A563B",
"y  c #684C1C",
"u  c #78471B",
"i  c #446A1A",
"p  c #5B6918",
"a  c #487A15",
"s  c #527418",
"d  c #584529",
"f  c #484535",
"g  c #584737",
"h  c #4B5430",
"j  c #694629",
"k  c #794B26",
"l  c #684A37",
"z  c #764837",
"x  c #6F5331",
"c  c #7A5435",
"v  c #516B2E",
"b  c #5B7633",
"n  c #776D36",
"m  c #2F3A43",
"M  c #4E2E49",
"N  c #4B3445",
"B  c #563647",
"V  c #5D3554",
"C  c #693C48",
"Z  c #633857",
"A  c #793F5B",
"S  c #7C3D67",
"D  c #264649",
"F  c #3A4645",
"G  c #295847",
"H  c #365644",
"J  c #2F6C4F",
"K  c #357756",
"L  c #4F4E49",
"P  c #435846",
"I  c #58585B",
"U  c #6C514C",
"Y  c #506F52",
"T  c #59695A",
"R  c #6A6957",
"E  c #4A5A61",
"W  c #585F63",
"Q  c #7E4567",
"!  c #6B5C68",
"~  c #576765",
"^  c #536A6C",
"/  c #6F7171",
"(  c #687676",
")  c #A01C1F",
"_  c #943019",
"`  c #8F1824",
"'  c #8A2A2A",
"]  c #8C4F12",
"[  c #954716",
"{  c #965619",
"}  c #AE560B",
"|  c #A45A1B",
" . c #9E6614",
".. c #B56F0D",
"X. c #B5651B",
"o. c #87532C",
"O. c #975B29",
"+. c #865A39",
"@. c #A25E25",
"#. c #916D2D",
"$. c #9A6336",
"%. c #B06727",
"&. c #A66A38",
"*. c #B97338",
"=. c #C76508",
"-. c #D36805",
";. c #DB7804",
":. c #C87112",
">. c #E77B02",
",. c #F37701",
"<. c #CB782F",
"1. c #863B68",
"2. c #843F73",
"3. c #865150",
"4. c #996A47",
"5. c #906B4B",
"6. c #A76C44",
"7. c #B77747",
"8. c #B0764C",
"9. c #89456A",
"0. c #8C4873",
"q. c #9B4879",
"w. c #A24A7D",
"e. c #896F75",
"r. c #AB7276",
"t. c #C67D46",
"y. c #C17E50",
"u. c #3F963F",
"i. c #4D8F0E",
"p. c #4E920F",
"a. c #56950E",
"s. c #4C8513",
"d. c #57881A",
"f. c #4C9512",
"g. c #579613",
"h. c #71910D",
"j. c #669C17",
"k. c #4CA113",
"l. c #5DA616",
"z. c #68AA18",
"x. c #6FB01D",
"c. c #75B91D",
"v. c #55872B",
"b. c #689B21",
"n. c #668838",
"m. c #6EA323",
"M. c #79BA20",
"N. c #7CC11E",
"B. c #7EC221",
"V. c #2C855E",
"C. c #368A58",
"Z. c #359658",
"A. c #328C63",
"S. c #369965",
"D. c #38A86A",
"F. c #3BB66B",
"G. c #3CB672",
"H. c #439743",
"J. c #479847",
"K. c #489848",
"L. c #508A53",
"P. c #529B52",
"I. c #589D58",
"U. c #6F9150",
"Y. c #76A457",
"T. c #6D8B75",
"R. c #62A062",
"E. c #6DA26D",
"W. c #70A26E",
"Q. c #6EA470",
"!. c #72A572",
"~. c #79A97B",
"^. c #3DC770",
"/. c #40CD77",
"(. c #908D09",
"). c #AD8608",
"_. c #958C37",
"`. c #A89A39",
"'. c #B6AA3D",
"]. c #CB8405",
"[. c #E58524",
"{. c #81C91F",
"}. c #82C721",
"|. c #B88358",
" X c #96B053",
".X c #A9B54B",
"XX c #998E6A",
"oX c #86AA7A",
"OX c #C8834C",
"+X c #D48648",
"@X c #D39059",
"#X c #E38F4B",
"$X c #EC9854",
"%X c #F29C55",
"&X c #F1A05C",
"*X c #CD9567",
"=X c #EBA569",
"-X c #757D86",
";X c #A74B85",
":X c #B54E8C",
">X c #B7548C",
",X c #BB5293",
"<X c #C34D94",
"1X c #C45598",
"2X c #CE59A4",
"3X c #D95BA8",
"4X c #E05EAE",
"5X c #EA63B8",
"6X c #F364BA",
"7X c #F668C2",
"8X c #7D8686",
"9X c #758C8C",
"0X c #7EAB80",
"qX c #858A88",
"wX c #908B89",
"eX c #8A9697",
"rX c #969697",
"tX c #82AC85",
"yX c #8BAE8E",
"uX c #8EAF91",
"iX c #96B598",
"pX c #A3A798",
"aX c #8C98A1",
"sX c #9CA8A9",
"dX c #9CB8A0",
"fX c #A6A7A8",
"gX c #B5ACAB",
"hX c #A7B9AA",
"jX c #B6B7AB",
"kX c #A3AEB3",
"lX c #AAB6B4",
"zX c #B7B7B7",
"xX c #B3BDBA",
"cX c #C3A285",
"vX c #CABCB8",
"bX c #ACC3AE",
"nX c #ADC3B4",
"mX c #B4C3B9",
"MX c #BAC4BB",
"NX c #C7C8BB",
"BX c #B6BFC3",
"VX c #CABCC4",
"CX c #BDC4C2",
"ZX c #BBC8C4",
"AX c #C5C8C6",
"SX c #C9CCD2",
"DX c #E8E6E8",
/* pixels */
"K.K.K.K.K.K.K.K.K.K.K.K.K.K.K.K.K.K.K.K.K.K.K.K.K.K.K.K.J.K.K.K.K.K.K.K.K.K.K.K.K.K.K.K.K.K.K.K.K.K.K.K.K.K.K.K.K.K.K.K.K.K.K.K.",
"K.K.K.K.K.K.K.K.K.K.K.K.K.K.K.K.K.K.K.K.K.K.K.K.K.K.K.K.J.J.K.K.K.K.K.K.K.K.K.K.K.K.K.K.K.K.K.K.K.K.K.K.K.K.K.K.K.K.K.K.K.K.K.K.",
"K.K.K.K.K.K.K.K.K.K.K.K.K.K.K.K.K.K.K.K.K.K.K.K.K.K.K.K.J.H.v.Z.H.K.H.K.K.K.K.K.K.K.J.J.K.K.K.K.K.K.K.K.K.K.K.K.K.K.K.K.K.K.K.K.",
"K.K.K.K.K.K.K.K.K.K.K.K.K.K.K.K.K.K.K.K.K.K.K.K.K.K.K.K.E.ZXmXxXmXxXCXE.K.K.K.K.K.K.J.J.K.K.K.K.K.K.K.K.K.K.K.K.K.K.K.K.K.K.K.K.",
"K.K.K.K.K.K.K.K.K.K.K.K.K.K.K.K.K.K.K.K.J.J.K.K.Q.Q.E.Q.CX/ I I I I ( NX!.E.E.E.P.J.J.J.K.K.K.K.K.K.K.K.K.K.K.K.K.K.K.K.K.K.K.K.",
"K.K.K.K.K.K.K.K.K.K.K.K.K.K.K.K.K.K.K.K.J.v.Z.yXZXkXlXlXwXr $ $ $ $ r 9XhXkXkXBXiXZ.Z.H.K.K.K.K.K.K.K.K.K.K.J.K.J.K.K.K.K.K.K.K.",
"K.K.K.K.K.K.K.K.K.K.K.K.K.K.K.K.K.K.K.K.R.nXnXBX^ D H v b v i h 8 8 8 h t e D ^ nXdXnX!.K.K.K.K.K.K.K.K.K.K.K.K.K.K.K.K.K.K.K.K.",
"K.K.K.K.K.K.K.K.K.K.K.K.K.K.K.K.K.K.K.I.ZXuXqX( F = h b b.m.b.j.d.s.a a 9 q O D ^ 9X9XZXI.K.K.J.K.K.K.K.K.K.K.K.K.K.K.K.K.K.K.K.",
"K.K.K.K.K.K.K.K.K.K.K.K.K.K.K.K.Z.H.R.ZXsXY t h q h v b.N.B.N.x.l.a.a.h.p { d % + O G 9XMXR.K.J.K.K.K.K.K.K.K.K.K.K.K.K.K.K.K.K.",
"K.K.K.K.K.K.K.K.K.K.K.K.K.K.K.K.sXuXmXeXE H h v a d.b.x.N.B.B.c.l.h.(.(.)... .y % O + D 8XlXyXuXI.K.K.K.K.K.K.K.K.K.K.K.K.K.K.K.",
"K.K.K.K.K.K.K.K.K.K.K.K.K.K.H.hXkXaX9XE r h v g.z.c.M.M.M.N.c.l.k.h.(.).>.>.:.{ < @ & m E 8XeXsXbXJ.K.K.K.K.K.K.K.K.K.K.K.K.K.K.",
"K.K.K.K.K.K.K.K.K.K.K.K.K.K.H.ZX^ m m & - i d.x.c.}.B.N.M.x.l.g.f.a.(.;.,.].;.{ ; & M V B m 0 ^ ZXv.K.K.K.K.K.K.K.K.K.K.K.K.K.K.",
"K.K.K.K.K.K.K.K.K.K.K.K.K.!.W.MXI @ @ @ # i d.x.}.{.}.}.c.z.a.a.f.h.).,.,.,.=.] 3 B 2.w.0.B @ E nXu.H.J.J.K.K.K.K.K.K.K.K.K.K.K.",
"K.K.K.K.K.K.K.K.K.K.K.K.iXxXjXpXY q # @ @ i d.x.c.c.c.z.z.z.h.h.h.(.].].,.;.} u C 9.,X2X>X1.4 R ZXZ.J.J.K.K.K.K.K.K.K.K.K.K.K.K.",
"K.K.K.K.K.K.K.K.K.K.J.P.AXR v n.d.s 8 $ $ q d.z.z.z.l.g.h.(.)...).:.].,.-.} u z 9.,X4X6X3X:X1.! zXiXH.J.K.K.K.K.K.K.K.K.K.K.K.K.",
"K.K.K.K.K.K.K.K.K.K.P.I.NXY s j.x.j.s q q 8 a f.g.p.s.g.h.).:.;.>.;.>.-.} u 6 9.<X3X6X6X6X4Xw.9./ hXyXJ.K.K.K.K.K.K.K.K.K.K.K.K.",
"K.K.K.K.K.K.K.K.P.iXAXNXiXn.j.M.c.z.s.9 9 9 s.s.a 9 s p ).].>.,.=.} } | ] C 2.;X3X6X6X7X6X6X1X1.N wXyXH.K.K.K.K.K.K.K.K.K.K.K.K.",
"K.K.K.K.K.K.K.K.!.AX( R n.x.c.N.c.l.i.s.9 i.f.9 9 q y  .].[.,.-.[ : 1 1 C 0.:X2X5X6X6X7X6X5X>XQ L eXyXK.K.K.K.K.K.K.K.K.K.K.K.K.",
"K.K.K.K.K.K.K.K.W.zXI b m.c.N.c.z.g.p.p.i.f.s.i h g k { =.....| 6 C m V 1.,X3X5X6X5X2X,X,X,Xq.V D eXyXK.K.K.K.K.K.K.K.K.K.K.K.K.",
"K.K.K.K.K.K.K.K.W.zXR b m.N.c.z.k.a.a.a.i.s.9 v c +.$.O.] ] ] : 3.1.S ;X;X3X6X7X7X2X;X9.S Q V L ~ kXuXJ.K.K.K.K.K.K.K.K.K.K.K.K.",
"K.K.K.K.K.K.K.K.!.zXR b z.x.z.g.p.p.p.p.s.9 7 h 4.y.t.3.2 # < Z ;X1X2X2X2X3X4X4X2X>XU f # # & I kXbXI.K.K.K.K.K.K.K.K.K.K.K.K.K.",
"K.K.K.K.K.K.K.K.!.zXI b b.c.z.a.p.p.a.s.9 7 $ 5 8.@X@X4.g * & V :X4X3X1X;Xq.w.w.;X9.z 3   $ ~ sXdXu.K.K.K.K.K.K.K.K.K.K.K.K.K.K.",
"K.K.K.K.K.K.K.K.E.zX! b b.x.z.a.a.a.s.i 7 o @ 5 6.@X=X*X5.l < V :X2X,X2.Z B M B B U c k y 4 pXiXK.K.K.K.K.K.K.K.K.K.K.K.K.K.K.K.",
"K.K.K.K.K.K.K.K.Q.zXT v d.j.z.g.a.s.i q $ . o 5 4.OX=X=X*XU 4 V :X1Xq.B - - L - * 6 $.@.k 5 gXW.K.K.K.K.K.K.K.K.K.K.K.K.K.K.K.K.",
"K.K.K.K.K.K.K.K.Q.ZXeXoXU.d.d.a.a i 8 % o . . 2 +.t.$X=X@X5.4 Z :X<X9.4 F / ( W 4 j $.*.$.L qXAXtXK.K.K.K.K.K.K.K.K.K.K.K.K.K.K.",
"K.K.K.K.K.K.K.K.J.0XnXjXjXY s s.i 8 % % - - & 2 ] %.#X%X@Xn f V :X:X9.N ~ sXkXqXI l &.OX8.l m ( ZX~.H.K.K.K.K.K.K.K.K.K.K.K.K.K.",
"K.K.K.K.K.K.K.K.J.K.H.K.MXP 8 9 8 7 F 8XfXfXT % k %.<.#X|.x 4 Z <X<X1.M ^ ZXSXsXI l 6.@X*X4.U L 8XlX0XK.K.K.K.K.K.K.K.K.K.K.K.K.",
"K.K.K.K.K.K.K.K.K.K.K.P.ZXT.T R T ~ ( CXDXVX/ < k :.<.<.&.k 4 Z ,X<X1.B ( ZXSXkXI l 4.*X=X@X4.g F eXyXK.K.K.K.K.K.K.K.K.K.K.K.K.",
"K.K.K.K.K.K.K.K.K.K.K.K.Q.AXMXMXMXMXZX~.SXe.U C o.$.X.<.X.u 3 Z w.w.1.U e.jXxXfX/ +.*.#X=X*X5.g = eXtXK.K.K.K.K.K.K.K.K.K.K.K.K.",
"K.K.K.K.K.K.K.K.K.K.K.K.J.H.H.H.H.H.H.P.AXQ 1.9.3.o.o.| X.{ o.z A Q 9.4.|.cXcX*X8.7.OX+Xt.4.U r m eXyXK.K.K.K.K.K.K.K.K.K.K.K.K.",
"K.K.K.K.K.K.K.K.K.K.K.J.J.K.K.K.K.K.K.P.SXe.w.w.S B : ] X.X.@.o.6 U 3.OX+XOX7.OXOX+X<.*.O.j - = D 9XyXJ.K.K.K.K.K.K.K.K.K.K.K.K.",
"K.K.K.K.K.K.K.K.K.K.K.K.J.J.K.K.K.K.K.P.AX0.0.q.V <   : { X.X.| k j &.+X#X<.<.*.7.6.$.o.c l L m D aXyXJ.K.K.K.K.K.K.K.K.K.K.K.K.",
"K.K.K.K.K.K.K.K.K.K.K.K.K.K.K.K.K.K.J.P.VXW L Z N @ o ; j | X.X.{ O.*.<.<.:.X.@.o.l d d c 5.3.L r eXyXJ.K.K.K.K.K.K.K.K.K.K.K.K.",
"K.K.K.K.K.K.K.K.K.K.K.K.K.K.K.K.K.K.K.P.CXW - & # = @ e 3 k O.| | O.@.| | | { k f O @ 2 +.7.8.+.r rXyXJ.K.K.K.K.K.K.K.K.K.K.K.K.",
"K.K.K.K.K.K.K.K.K.K.K.J.K.K.K.K.K.K.K.K.iXkXT @ = G G G t f j k k k u : u u k d G + O % o.<.*.+.4 eXyXJ.K.K.K.K.K.K.K.K.K.K.K.K.",
"K.K.K.K.K.K.K.K.K.K.K.K.K.K.K.K.K.K.K.K.P.iXwXe G K A.V.K H % < < 2 2 2 2 2 r H J G 0 - j &.O.c I fXuXJ.K.K.K.K.K.K.K.K.J.K.K.K.",
"K.K.K.K.K.K.K.K.K.K.K.K.K.K.K.K.K.K.K.K.K.yXrXe J S.G.F.A.G + . . o + e = + G K S.S.K H d k u U gXhXJ.K.K.K.K.K.K.K.K.K.K.K.K.K.",
"K.J.K.K.K.K.K.K.K.K.K.K.K.K.K.K.K.K.K.K.H.yXrXt C.F./.G.A.G + . . O D G J J V.S.G.^.S.K h d 2 / ZXv.K.K.K.K.K.K.K.K.K.K.K.K.K.K.",
"K.K.K.K.K.K.K.K.K.K.K.K.K.K.K.K.K.K.K.K.!.xX8Xt Z.F./.D.K H % # # % H K A.A.D.F.^.^.D.K G = L 8XSXu.J.K.K.K.K.K.K.K.K.K.K.K.K.K.",
"K.K.K.K.K.K.K.K.K.K.K.K.K.K.K.K.K.K.K.P.CX-XH 0 Z.^.^.L.H r d d 3 3 r J K S.G.^.^.G.V.G + - qXAXQ.J.J.K.K.K.K.K.K.K.K.K.K.K.K.K.",
"K.K.K.K.K.K.K.K.K.K.K.K.K.K.K.K.K.K.J.P.xXF = w Z.F.Z.J r 2 j k k j 4 r J Z.^.^.F.Z.J r $ r kX!.K.K.K.K.K.K.K.K.K.K.K.K.K.K.K.K.",
"K.K.K.K.K.K.K.K.K.K.K.K.K.K.K.K.K.K.J.P.MXY h Y L.Z.C.w $ 3 k O.#.k 1 @ 0 Z.F.D.V.Y h j d f gXE.K.K.K.K.K.K.K.K.K.K.K.K.K.K.K.K.",
"K.K.K.K.K.K.K.K.K.K.K.K.K.K.K.K.K.K.K.P.AX5._._.n.h 0 O # 3 k O.O.k 3 @ 0 C.A.V.G h #._.#.x gXE.K.K.K.K.K.K.K.K.K.K.K.K.K.K.K.K.",
"K.K.K.K.K.K.K.K.K.K.K.K.K.K.K.K.K.K.J.P.AX_.'.'._.h # @ % d o.@.O.o.j 2 G K K H t n `.'._.U jXW.K.K.K.K.K.K.K.K.K.K.K.K.K.K.K.K.",
"K.K.K.K.K.K.K.K.K.K.K.K.K.K.K.K.K.K.J.P.AXXX`..X.X#.k 2 % x @.*.*.&.$.$.U H H Y #._. X XU.U lXW.K.K.K.K.K.K.K.K.K.K.K.K.K.K.K.K.",
"K.K.K.K.K.K.K.K.K.K.K.K.K.K.K.K.K.K.J.P.NXbXoX X.X.X#.h 4 c *.+X+X+X+Xt.$.g g n .X.X XY.Y Y zXE.K.K.K.K.K.K.K.K.K.K.K.K.K.K.K.K.",
"K.K.K.K.K.K.K.K.K.K.K.K.K.K.K.K.K.K.K.K.I.bXdXI. X.X`.h f c t.$X$X$X%X#X8.3 g n .X.XY.L.J ( CX!.K.K.K.K.K.K.K.K.K.K.K.K.J.K.K.K.",
"K.K.K.K.K.K.K.K.J.K.K.K.K.K.K.K.K.K.K.J.J.iXiXY I.Y.U.h 2 +.t.%X$X%X%X$X7.j f v U.U.L.H ~ zXiXP.K.J.K.K.K.K.K.K.K.K.K.K.K.K.K.K.",
"J.K.K.K.K.K.K.K.K.K.K.J.K.K.K.K.K.K.K.K.J.yXlXT.L.Y Y e 2 +.+X%X%X%X%X+X6.d r e K L.Y ( iXbXK.K.K.K.K.K.K.K.K.K.K.K.K.K.K.K.K.K.",
"K.K.K.K.K.K.K.K.K.K.K.K.K.K.K.K.K.K.K.K.J.H.iXMXT.J G = f $.+X&X&X%X+X6.c 2 + 0 G ^ 9XZXhXH.K.K.K.K.K.K.K.K.K.K.K.K.K.K.K.K.K.K.",
"K.K.K.K.K.K.K.K.K.K.K.K.K.K.K.K.K.K.K.K.J.K.H.iXCX-X= O 4 +.OX$X$X@X6.l 2 # @ = D T.ZXhXK.K.K.K.K.K.K.K.K.K.K.K.K.K.K.J.K.K.K.K.",
"K.K.K.K.K.K.K.K.K.K.K.K.K.K.K.K.K.K.K.K.K.K.J.K.0XfX- o r l 4.|.7.4.l # @ # < < * wXiXP.K.K.K.K.K.K.K.K.K.K.K.K.K.K.K.K.K.K.K.K.",
"K.K.K.K.K.K.K.K.K.K.K.K.K.K.K.K.K.K.K.K.K.K.K.K.E.fX- . $ f h c U L % @ # > , , 1 rXuXJ.K.K.K.K.K.K.K.K.K.K.K.K.K.K.K.K.K.K.K.K.",
"K.K.K.K.K.K.K.K.K.K.K.K.K.K.K.K.K.K.K.K.K.K.K.K.E.gX4 X   < 2 3 g f % < > ' ) , 1 rXuXJ.K.K.K.K.K.K.K.K.K.K.K.K.K.K.K.K.K.K.K.K.",
"K.K.K.K.K.K.K.K.K.K.K.K.K.K.K.K.K.K.K.K.K.K.K.K.E.gX6 > , , > , : : ] ] _ _ ' , L fXuXK.K.K.K.K.K.K.K.K.K.K.K.K.K.K.K.K.K.K.K.K.",
"K.K.K.K.K.K.K.K.K.K.K.K.K.K.K.K.K.K.K.K.K.K.K.K.E.gX6 ` ) ) ` ) } =.=...} _ 1 L fXjXI.K.K.K.K.K.K.K.K.K.K.K.K.K.K.K.K.K.K.K.K.K.",
"K.K.K.K.K.K.K.K.K.K.K.K.K.K.K.K.K.K.K.K.K.K.K.K.E.NX>X' ) ) ) _ =.-.-.=.} j I eXMXK.K.K.K.K.K.K.K.K.K.K.K.K.K.K.K.K.K.K.K.K.K.K.",
"K.K.K.K.K.K.K.K.K.K.K.K.K.K.K.K.K.K.K.K.K.K.K.K.H.~.NXr.' ' ` , _ [ [ [ k L fXbXK.K.K.K.K.K.K.K.K.J.K.K.K.K.K.K.K.K.K.K.K.K.K.K.",
"J.K.K.K.K.K.K.K.K.K.K.K.K.J.K.K.K.K.K.K.K.J.K.K.J.H.oXvX>Xg < < 1 ; ; < R fXhXI.K.K.K.K.K.K.K.K.K.K.K.K.K.K.K.K.K.K.K.K.K.K.K.J.",
"K.K.K.K.K.K.K.K.K.K.K.K.K.K.K.K.K.K.K.K.K.K.K.K.K.J.J.!.ZXT.E E E E E E 8XbXI.J.K.K.K.K.K.K.K.K.K.K.K.K.K.K.K.K.K.K.K.K.K.K.K.K.",
"K.K.K.K.K.K.K.K.K.K.K.K.K.K.K.K.K.K.K.K.K.K.K.K.K.K.K.K.Q.ZXxXmXmXxXxXmXmXR.K.K.K.K.K.K.K.K.K.K.K.K.K.K.K.K.K.K.K.K.K.K.K.K.K.K.",
"K.K.K.K.K.K.K.K.K.K.K.K.K.K.K.K.K.K.K.K.K.K.K.K.K.K.K.K.J.H.H.H.H.H.H.H.H.K.K.K.K.K.K.K.K.K.K.K.K.K.K.K.K.K.K.K.K.K.K.K.K.K.K.K.",
"K.K.K.K.K.K.K.K.K.K.K.K.K.K.K.K.K.K.K.K.K.K.K.K.K.K.K.K.K.K.K.K.J.J.K.K.K.K.K.K.K.K.K.K.K.K.K.K.K.K.K.K.K.K.K.K.K.K.K.K.K.K.K.K.",
"K.K.K.K.K.K.K.K.K.K.K.K.K.K.K.K.K.K.K.K.K.K.K.K.K.K.K.K.K.K.K.K.K.J.K.K.K.K.K.K.K.K.K.K.K.K.K.K.K.K.K.K.K.K.K.K.K.K.K.K.K.K.K.K."
};
