/* XPM */
static char *result[] = {
/* columns rows colors chars-per-pixel */
"64 64 238 2 ",
"   c #2F371D",
".  c #1A1E25",
"X  c #201D27",
"o  c #1D282A",
"O  c #1C3231",
"+  c #272828",
"@  c #342B25",
"#  c #372928",
"$  c #273628",
"%  c #383527",
"&  c #2C2F31",
"*  c #3A2936",
"=  c #283835",
"-  c #37393A",
";  c #6A1C1F",
":  c #5B391A",
">  c #663D1D",
",  c #561D23",
"<  c #721E23",
"1  c #482626",
"2  c #552225",
"3  c #433425",
"4  c #4A3728",
"5  c #563B27",
"6  c #5B3D23",
"7  c #4A3137",
"8  c #463639",
"9  c #692F28",
"0  c #274A19",
"q  c #374B1D",
"w  c #39581B",
"e  c #3B6518",
"r  c #3D651B",
"t  c #3D7510",
"y  c #374724",
"u  c #3C5128",
"i  c #2F4F32",
"p  c #2A4739",
"a  c #38453A",
"s  c #235F3F",
"d  c #4A551B",
"f  c #68461B",
"g  c #794A18",
"h  c #6A5819",
"j  c #417D0D",
"k  c #436819",
"l  c #426B19",
"z  c #457316",
"x  c #487B16",
"c  c #647715",
"v  c #5C4125",
"b  c #454637",
"n  c #4F5635",
"m  c #684626",
"M  c #754B24",
"N  c #7C5128",
"B  c #725035",
"V  c #4E6B2D",
"C  c #567925",
"Z  c #736E35",
"A  c #493843",
"S  c #5A324C",
"D  c #6C3452",
"F  c #683857",
"G  c #783F64",
"H  c #334241",
"J  c #2E5046",
"K  c #255648",
"L  c #316E4A",
"P  c #216352",
"I  c #2B6952",
"U  c #2B7459",
"Y  c #367A58",
"T  c #46474A",
"R  c #4E4C4A",
"E  c #534D4A",
"W  c #495448",
"Q  c #59534A",
"!  c #515956",
"~  c #6F4F4D",
"^  c #66584A",
"/  c #506D4E",
"(  c #68665B",
")  c #766555",
"_  c #755164",
"`  c #526F68",
"'  c #666A6A",
"]  c #746873",
"[  c #6A7C7D",
"{  c #777A77",
"}  c #8D161E",
"|  c #911C21",
" . c #B11B22",
".. c #A8252A",
"X. c #844C1A",
"o. c #8C5518",
"O. c #985517",
"+. c #A8590E",
"@. c #AA5C14",
"#. c #AC6615",
"$. c #B9651C",
"%. c #834E2A",
"&. c #885526",
"*. c #955B25",
"=. c #885B35",
"-. c #A15D22",
";. c #9A602B",
":. c #AA642C",
">. c #C76F18",
",. c #C8673D",
"<. c #843F56",
"1. c #8C3E6D",
"2. c #8B544A",
"3. c #A05E59",
"4. c #9A6B48",
"5. c #8E7159",
"6. c #AE7750",
"7. c #8F4970",
"8. c #964576",
"9. c #A34A7B",
"0. c #C75E6F",
"q. c #3D963E",
"w. c #4C8B0F",
"e. c #4F930D",
"r. c #53970E",
"t. c #4C8614",
"y. c #528C14",
"u. c #558819",
"i. c #559412",
"p. c #599614",
"a. c #5B9C14",
"s. c #629C1A",
"d. c #5FA40D",
"f. c #5EA113",
"g. c #5FA11C",
"h. c #64AC0F",
"j. c #64A617",
"k. c #6AAE16",
"l. c #6BAC1A",
"z. c #6CB216",
"x. c #6DB119",
"c. c #73B51D",
"v. c #75B91C",
"b. c #78BB1D",
"n. c #588426",
"m. c #689C33",
"M. c #6BA423",
"N. c #7BBC22",
"B. c #2F8A53",
"V. c #368455",
"C. c #2B8967",
"Z. c #368B66",
"A. c #2D996D",
"S. c #389769",
"D. c #38A76B",
"F. c #3ABA6A",
"G. c #33B570",
"H. c #439743",
"J. c #479847",
"K. c #489847",
"L. c #489848",
"P. c #518D56",
"I. c #4F9A50",
"U. c #519A51",
"Y. c #5A9959",
"T. c #719651",
"R. c #6CA55A",
"E. c #77A95C",
"W. c #489765",
"Q. c #569D63",
"!. c #508970",
"~. c #619F61",
"^. c #55A967",
"/. c #65A862",
"(. c #6CA36C",
"). c #73A56F",
"_. c #6FA470",
"`. c #78A879",
"'. c #3BC268",
"]. c #3AC871",
"[. c #3FDA71",
"{. c #40D471",
"}. c #40DC72",
"|. c #41E273",
" X c #42E975",
".X c #8E942E",
"XX c #86C134",
"oX c #83BA45",
"OX c #89AB57",
"+X c #84B35B",
"@X c #9ABA56",
"#X c #AEB247",
"$X c #A5B951",
"%X c #8A9468",
"&X c #B1886A",
"*X c #C9885C",
"=X c #DA9262",
"-X c #94C753",
";X c #B7C34E",
":X c #A8C354",
">X c #B4C852",
",X c #9BC66D",
"<X c #C9CB4A",
"1X c #CDCE4B",
"2X c #D7D247",
"3X c #A84C85",
"4X c #B7548D",
"5X c #B87B9E",
"6X c #C55699",
"7X c #D85BA7",
"8X c #E35FAF",
"9X c #EB62B6",
"0X c #F868C3",
"qX c #758787",
"wX c #8D8D8A",
"eX c #8CAB88",
"rX c #8CB18D",
"tX c #97B598",
"yX c #A4A69D",
"uX c #BB94AB",
"iX c #A8ACAB",
"pX c #A5BBAB",
"aX c #AABCA9",
"sX c #B3B2AE",
"dX c #B6BAB7",
"fX c #BBBCBA",
"gX c #D4989B",
"hX c #C3BEB9",
"jX c #D4B9B9",
"kX c #ADCD87",
"lX c #ADC1B1",
"zX c #B5C3B7",
"xX c #BDC2BB",
"cX c #C4C5BA",
"vX c #D1CDB5",
"bX c #BEC7C5",
"nX c #C4C8C4",
"mX c #D0CDCE",
/* pixels */
"L.L.L.L.L.L.L.L.L.L.L.L.L.L.L.L.L.L.L.L.L.L.L.L.L.L.L.L.L.L.L.L.L.L.L.L.L.L.L.L.L.L.L.L.L.L.L.L.L.L.L.L.L.L.L.L.L.L.L.L.L.L.L.L.",
"L.L.L.L.L.L.L.L.L.L.L.L.L.L.L.L.L.L.L.L.L.L.L.L.L.L.L.L.L.L.L.L.L.L.L.L.L.L.L.L.L.L.L.L.L.L.L.L.L.L.L.L.L.L.L.L.L.L.L.L.L.L.L.L.",
"L.L.L.L.L.L.L.L.L.L.L.L.L.L.L.L.L.L.L.L.L.L.L.L.L.L.L.L.L.L.L.L.L.L.L.L.L.L.L.L.L.L.L.L.L.L.L.L.L.L.L.L.L.L.L.L.L.L.L.L.L.L.L.L.",
"L.L.L.L.L.L.L.L.L.L.K.L.L.L.L.L.L.L.L.L.L.L.L.L.L.L.L.L.L.L.L.L.L.L.L.L.L.L.L.L.L.L.L.L.J.L.L.L.L.L.L.L.L.L.L.L.L.L.L.L.L.L.J.L.",
"L.L.L.L.L.L.L.L.L.L.L.L.L.L.L.L.L.L.L.L.L.L.L.L.L.L.L.L.L.L.L.L.J.J.J.J.L.L.L.L.L.L.L.L.L.L.L.L.L.L.L.L.L.L.L.L.L.L.L.L.L.L.L.L.",
"L.L.L.L.L.L.L.L.L.L.L.L.L.L.L.L.L.L.L.L.L.L.L.L.L.L.L.L.K.B.H.H.H.H.H.B.H.H.K.L.L.L.L.L.L.L.L.L.L.L.L.L.L.L.L.L.L.L.L.L.L.L.L.L.",
"L.L.L.L.K.L.L.L.L.L.L.L.L.L.L.L.L.L.L.L.L.L.L.L.L.L.L.L.R.lXaXaXlXlXtXpXpXlX`.L.L.L.L.L.L.L.J.L.L.L.L.L.L.L.J.L.L.L.L.L.L.L.L.L.",
"L.L.L.L.L.L.L.L.L.L.L.L.K.L.L.L.L.L.L.L.L.L.L.L.I.I.U.Y.cXwX5.qX] ).5X5.!.qXbX_.L.L.L.L.L.L.L.L.L.L.L.L.L.L.L.L.L.L.L.L.L.L.L.L.",
"L.L.L.L.L.L.L.L.L.L.L.L.L.L.K.L.K.L.L.L.L.K.P.(.nXdXzXcXyXn q y q y d y y J qXbX_.J.L.L.L.L.L.L.L.L.L.L.L.L.L.L.L.L.L.L.L.L.L.L.",
"L.L.L.L.L.L.L.L.L.L.L.L.L.L.L.L.K.K.L.L.Y.tXeXfX] T W / n.x x z z z z l u y - ' bXrXrXY.L.L.L.L.L.L.L.L.L.L.L.L.L.L.J.L.L.L.L.L.",
"L.L.L.L.L.L.L.L.L.L.L.L.L.L.L.L.K.K.K.I.aXiXeX`.a $ q z p.f.p.p.i.p.a.p.u.k b b %XeXiXaXI.L.L.L.L.L.L.L.L.L.L.L.L.L.L.L.L.L.L.L.",
"L.L.L.L.L.L.L.L.L.L.L.L.L.L.L.L.K.K.K.P.bX! i d k k l u.j.x.k.k.l.x.x.l.s.p.C V n n / cXU.L.L.L.L.L.L.L.L.L.L.L.L.L.L.L.L.L.L.L.",
"L.L.L.L.L.L.L.L.L.L.L.L.I._._.).).).)._.zXW w x t.y.i.j.z.b.b.c.c.N.c.c.l.l.l.s.t.t n xX).(.).).)._.).I.J.J.J.L.L.L.L.L.L.L.L.L.",
"L.L.L.L.L.L.L.L.L.L.L.I.tXfXfXvXmXnXsXiX%Xb k w.r.d.j.x.b.XXXXb.c.x.c.l.k.z.k.j.i.z n qXiXiXdXvXvXjXfXtXI.L.L.L.L.L.L.L.L.L.L.L.",
"L.L.L.L.L.L.L.L.L.L.L.U.xX' ) 6.6.5.T - & & k w.d.k.c.N.N.N.N.c.l.f.a.a.f.j.f.a.i.z y = = H ) 6.6.5.' nXU.L.L.L.L.L.L.L.L.L.L.L.",
"L.L.L.L.L.L.L.L.L.L.L.U.dXQ ~ 6.*X4.3 . o $ r y.j.c.c.c.c.c.l.j.y.x z x x y.r.r.i.t.w 0 o + ~ *X=X4.^ hXU.L.L.J.L.L.L.L.L.L.L.L.",
"L.L.L.L.L.L.L.L.L.L.L.U.fXE 2.*X=X4.7 . o   e t.j.v.N.x.l.j.j.y.z w 0 y e x w.e.e.w.j 0 $ % ~ *X=X4.( hXU.K.L.L.L.L.L.L.L.L.L.L.",
"L.L.L.L.L.L.L.L.L.L.L.U.fXE =.6.*X4.4 + + % k t.g.c.l.s.i.i.w.x w $ + $ y t w.w.w.r.r.j w y N 6.*X4.^ hXU.L.L.L.L.L.L.L.L.L.L.L.",
"L.L.L.L.L.L.L.L.L.L.L.U.fXE B 6.6.2.% 3 > g h r t.a.g.t.l z x x k y y y e t t t.z c .X.Xh 3 B 4.6.=.Q nXU.K.L.L.L.L.L.L.L.L.L.L.",
"L.L.L.L.J.L.L.L.L.L.L.U.fXR m ;.:.N 3 f O.+.g d r t.t.r q r x w.t.z l t x w.t.V q h #.#.o.4 m =.:.%.Q fXU.L.L.L.L.L.L.L.L.K.L.L.",
"L.L.L.L.L.L.L.L.L.L.L.U.fXR > *.-.%.6 g +.+.+.f d r l q q l u.a.a.a.a.p.g.N.R.n.d f +.+.g 1 : X.*.%.Q hXU.K.K.L.L.L.L.L.L.L.L.L.",
"L.L.L.L.L.L.L.L.L.L.L.I.fXR 6 *.@.-.o.X.X.o.O.O.g d y w l t.s.l.x.l.l.c.-X,XtX%XV d g > : @ v X.*.g Q fXU.K.K.K.L.L.L.L.L.L.L.L.",
"L.L.L.L.L.L.L.L.L.L.K.U.fXR m &.$.>.#.g : : O.#.@.m y w x a.l.c.N.x.x.N.-XvXvXkXm.k q   # @ 9 O.-.g Q fXU.K.K.K.L.L.L.L.L.L.L.L.",
"L.L.L.L.L.L.L.L.L.L.K.U.fXE 9 -.>.>.>.X.3 @ f O.@.O.X.h k t.f.z.k.j.k.c.-XkXkX,XM.z 0 + # > O.$.-.N Q hXI.K.K.K.L.L.L.L.L.L.L.L.",
"L.L.L.L.L.L.L.L.L.L.J.I.fXR 6 %.$.>.$.&.4 # # : o.+.+.g d w t.f.a.f.l.c.XX-X-XoXg.t 0 @ 5 &.$.$.-.m Q fXU.L.L.L.L.K.L.L.L.L.L.L.",
"L.L.L.L.L.L.L.L.L.L.L.I.nX! n =.*.-.;.%.D S * # > O.+.> % q r x w.i.j.c.N.N.v.k.a.t 0 % D ,.,.$.&.5 ! bXU.L.L.L.L.L.L.L.L.L.L.L.",
"L.L.L.L.L.L.L.L.L.L.L.I.tXfXsXyX~ 6 5 2.7.8.S &   > > 2 + + y w z i.j.c.b.b.z.h.a.t 0 4 <.0.0.2.6 % J bXU.L.L.L.L.L.L.L.L.L.L.L.",
"L.L.L.L.L.L.L.L.L.L.L.L.U.).R.xX5.' ! 3X4X4X7.A % # * @ + + + q e y.j.l.z.v.v.j.i.l y S 1.4X9._ ! ` [ bXU.L.L.L.L.L.L.L.L.L.L.L.",
"L.L.L.L.L.L.L.L.L.L.L.L.L.L.L.Y.mXbXfX5X6X8X6X8.7.D F 8 + . o   k t.f.j.z.v.k.p.l n _ 7.3X1.G ] sXxXbX).L.L.L.L.L.L.L.L.L.L.L.L.",
"L.J.L.L.L.L.L.L.L.L.L.L.L.L.L.L.B.q.fXuX4X8X7X7X6X4X3XD * . + y r y.r.a.h.v.l.C y ~ 8.9.1.G ] iXsXB.H.J.L.L.K.L.L.L.L.L.L.L.K.L.",
"L.L.L.L.L.L.L.L.L.L.L.L.L.L.L.L.K.m.zXuX3X5X7X9X0X9X7X9.D 7 +   l y.e.e.d.v.l.C % S 1.3XG A wXmXL.L.J.K.L.L.L.L.L.L.L.L.L.L.L.L.",
"L.L.L.L.L.L.L.L.L.L.L.L.L.L.L.L.U.U./.mXuX3X6X8X0X0X9X7X3XF * $ e w.e.e.a.l.M.C - * S S A = ! wXxXL.U.L.L.L.L.L.L.L.L.L.L.L.L.L.",
"L.L.L.L.L.L.L.L.L.L.L.L.K.K.J._.cXcXcXcXwX_ 8.4X7X7X7X8X7X3XF 4 k x w.e.f.z.l.C % + + # + @ % Q iXdXbXqXL.L.L.L.L.L.L.L.L.L.L.L.",
"L.L.L.L.L.L.L.L.L.L.L.L.K.K.B.bX(.Q ^ ^ b * S G 1.1.9.7X9X7X3X_ n k t w.f.v.c.C % . . + % 5 v v B ! !.mXU.L.L.L.L.L.L.L.L.L.L.L.",
"L.L.L.L.L.L.L.L.L.L.J.L.K.H.n.bX_ 6 m v 3 + & A A S F 4X8X8X6X9.F y 0 j a.x.M.C a o + + 4 M N &.M 4 W cXU.L.L.L.L.L.L.L.L.L.L.L.",
"L.L.L.L.L.L.L.L.L.L.J.J._.vXcXsX) M %.M 5 + O p p p R _ 3X4X6X8.S * 0 w x p.n.V i = + & v N ;.;.N 6 Q xXU.L.L.L.L.L.L.L.L.L.L.L.",
"L.L.L.L.L.L.L.L.L.L.L.U.nX{ ' ) N %.&.m 4 + p P B.B.B./ S D D F * X     q d y J L K p % 5 N *.;.=.m ^ hXY.L.L.L.L.L.L.L.L.L.L.L.",
"L.L.L.L.L.L.L.L.L.L.L.U.dXR 3 M &.;.&.m % O K U G.'.D.U i 0 a H p p p i i i i L Y I H % 6 N =.:.&XyXyXlXL.L.L.L.L.L.L.L.L.L.L.L.",
"L.L.J.L.L.L.L.L.L.L.L.U.fXR 4 M *.;.*.m @ = K C.F.'.F.B.B.s q.L Y V.B.L V.Y Y Z.Z.U J # 6 %.N %XvXrXtXY.L.L.L.L.L.L.L.L.L.L.L.L.",
"L.L.L.L.J.L.L.L.L.L.L.U.fXR 3 m &.&.&.m 4 a I V.S.D.D.F.F.'.F.F.'.'.'.'.'.'.'.D.S.U p % 5 M M 5.cXH.K.K.L.L.L.L.L.L.L.L.L.L.L.L.",
"L.L.L.L.L.L.L.L.L.L.L.U.zXW % 5 m m g M B Z / A.Z.Z.S.].[. X X}.}.}.}.}.|. X}.{.S.Y P H b v 5 ) xXH.L.L.L.L.L.L.L.L.L.L.L.L.L.L.",
"L.L.L.L.L.L.L.L.L.L.L.U.xXE @ % % 3 4 Z .X#XE.S.C.A.A.^.[.|.}.}.}.}.|.}.|.|.}.].S.Z.Y I i % - ] cXK.L.L.L.L.L.L.L.L.L.L.L.L.L.L.",
"L.L.L.L.L.L.L.L.L.L.J.U.fXR @ 3 3 @ @ Z #X$X$XR.W.S.A.G.G.].].{.{.}.}.}.}.[.].D.S.W.^.P./ a { dXrXL.L.L.L.L.L.L.L.L.L.L.L.L.L.L.",
"L.L.L.L.L.L.L.L.L.L.L.U.fXR 3 6 m 4 @ n T.$X:X$XE.Q.A.A.G.D.G.].'.}.|.|.{.G.D.A.Z.Q.+XOXZ b iXeXL.L.L.L.L.L.L.L.L.L.L.L.L.L.L.L.",
"L.L.L.L.L.L.L.L.L.L.L.U.fXR 6 N X.> & J / /.:X;X$X/.W.W.Z.S.S.D.'.{.[.[.].D.S.S.Z.).:X#X.XE iX(.L.L.L.L.L.L.L.L.L.L.L.L.L.L.L.L.",
"L.L.L.L.L.L.L.L.L.K.L.U.fXW 4 m X.: # p U W.+X$X$X$XOXOXOXY.!.A.G.F.].'.^./.E.+XOX@X:X#XZ n sX(.L.L.L.L.L.L.L.L.L.L.L.L.L.L.L.L.",
"L.L.L.L.L.L.L.L.K.K.K.I.bX` R ^ ~ Q T Y !.W.^.E.@X#X<X2X<XOXQ.Z.A.A.D.S.^.-X>X2X1X>X@XT./ ( hX_.L.L.L.L.L.L.L.L.L.L.L.L.L.L.L.L.",
"L.L.L.L.L.L.J.L.K.K.K.^.qXbXfXhXhXhXdXbXpXW.Z.W.E.$X1X1X<X@XE.R.~.~.~.R.E.,X1X2X1X$XT.Y !.hXyXU.L.L.L.L.L.L.L.L.L.L.L.L.L.L.L.L.",
"L.L.L.L.L.L.L.L.L.L.L.L.L.U.U.U.U.U.U.Y.bX!.U Z.Q.+X@X@X@X@X$X$X$X#X$X$X$X@X-X@X@XE./ K qXpXL.L.L.L.L.L.L.L.L.L.L.L.L.L.L.L.L.L.",
"L.L.L.L.L.L.L.L.L.L.L.L.L.L.L.L.L.K.K.U.cX! I Y Z.W.W.W.Q.+X;X2X1X2X2X1X#XOXQ.Z.W./ i = [ pXH.L.L.L.L.L.L.L.L.L.L.L.L.L.L.L.L.L.",
"L.L.L.L.L.L.L.L.L.L.L.L.L.L.L.L.L.L.K.U.fXE p K U P U U S./.@X>X;X;X<X>X@XP.U P P K & + { pXH.L.L.L.L.L.L.L.L.L.L.L.L.L.L.L.L.L.",
"L.L.L.L.L.L.L.L.L.L.L.L.L.L.L.L.L.L.K.U.fXR $ = = = K U Z.W.^.R.E.E.OX).Y.L H = = O + + [ pXH.L.L.L.L.L.L.L.L.L.L.L.L.L.L.L.L.L.",
"L.L.J.L.L.L.L.L.L.L.L.L.L.L.L.L.L.L.L.U.hXE 1 2 2 2 7 W Y V.U Y Y Y V.Y / - 1 , 1 1 # & [ aXL.L.L.L.L.L.L.L.L.L.K.L.L.L.L.L.L.L.",
"L.L.L.L.L.L.L.L.L.L.L.L.L.L.L.L.L.L.L.U.fXE ; | } } < 7 i K K K K K K J - 9 | } } < 9 ] iXtXH.L.L.L.L.L.L.L.L.L.L.L.L.L.L.L.L.L.",
"L.L.L.L.L.L.L.L.L.L.L.L.L.L.L.L.K.L.K.U.nX7.2... . . .; * o O + O & O & 1 <  . . .} ~ hXrXH.L.L.L.L.L.L.L.L.L.L.L.L.L.L.L.L.L.L.",
"L.L.L.L.L.L.L.L.L.L.L.L.L.L.L.L.K.K.K.K.eXnXjXgX3.} < , @ o o O O O O X # ; | | } ; ~ hXI.L.L.L.L.L.L.L.L.L.L.L.L.L.L.L.L.L.L.L.",
"L.L.L.L.L.L.L.L.L.L.L.L.L.L.L.L.L.L.L.L.L.U.L.cX5.2 2 # H ' [ qX[ [ [ { _ 7 2 9 5.5.wXcXU.L.L.L.L.L.L.L.L.L.L.L.L.L.L.L.L.L.L.L.",
"L.L.L.L.L.L.L.L.L.L.L.L.L.L.L.L.L.L.L.L.L.L.H.bX' H H H [ pXpXpXpXpXpXpXiX! H ' hXlXzX~.L.L.L.L.L.L.L.L.L.L.L.L.L.L.L.L.L.L.L.L.",
"L.L.J.L.L.L.L.L.L.L.L.L.L.L.L.L.L.L.L.L.L.L.L.rXdXiXpXiXfXqXB.n.H.H.H.L.tXdXiXbXrXB.H.H.L.L.L.L.L.L.L.L.L.L.L.L.L.L.L.L.L.L.L.L.",
"L.L.L.L.L.L.L.L.L.L.L.L.L.L.L.L.L.L.L.L.L.L.L.L._._./._._.K.L.L.L.L.L.L.I._.(._.L.L.L.L.L.L.L.L.L.J.L.L.L.L.L.L.L.L.J.L.L.L.L.L.",
"L.L.L.L.L.L.L.L.L.L.L.L.L.L.L.L.L.L.L.L.L.L.L.L.V.L.L.L.L.L.L.L.L.L.L.L.L.L.L.L.L.L.L.L.L.L.L.L.L.L.L.L.L.L.L.L.L.L.L.L.L.L.L.L.",
"L.L.L.L.L.L.L.L.L.L.L.L.L.L.L.L.L.L.L.L.L.L.L.L.L.L.L.L.L.L.L.L.L.L.L.L.L.L.L.L.L.L.L.L.L.L.L.L.L.L.L.L.L.L.L.L.L.L.L.L.L.L.L.L.",
"L.L.L.L.L.L.L.L.L.L.L.L.L.L.L.L.L.L.L.L.L.L.L.L.L.L.L.L.L.L.L.L.L.L.L.L.L.L.L.L.L.L.L.L.L.L.L.L.L.L.L.L.L.L.L.L.J.L.L.L.L.L.L.L.",
"L.L.L.L.L.L.L.L.L.L.L.L.J.L.L.L.L.L.L.L.L.L.L.L.L.L.L.L.L.L.L.L.L.L.L.L.L.L.L.L.L.L.L.L.L.L.L.L.L.L.L.L.L.L.L.L.L.L.L.L.L.L.L.L."
};
